<?xml version="1.0" encoding="utf-8"?>
<!-- Generator: Adobe Illustrator 22.1.0, SVG Export Plug-In . SVG Version: 6.00 Build 0)  -->
<svg version="1.1" id="Capa_1" xmlns="http://www.w3.org/2000/svg" xmlns:xlink="http://www.w3.org/1999/xlink" x="0px" y="0px"
	 viewBox="0 0 57.8 65.5" style="enable-background:new 0 0 57.8 65.5;" xml:space="preserve">
<style type="text/css">
	.st0{fill:#94CC5A;}
	.st1{fill:#FFD529;}
	.st2{fill:none;stroke:#95CD58;stroke-width:5;}
	.st3{fill:#95CD58;}
	.st4{fill:#FFCE00;}
	.st5{fill:#95C35B;}
</style>
<g>
	<path class="st4" d="M57.8,65.5H0l28.8-30.2c6.2-6.5,6.7-8.9,6.7-10.6c0-3.6-2.4-5.8-6.4-5.8c-3.4,0-7,2.3-7,7.2v1.6L2,26.1v-1.4
		C2,12.8,11.3,0,28.5,0c16.6,0,27.8,9.6,27.8,23.9c0,7.8-5.1,15.8-14.1,22.6h15.6V65.5z M7,62.5h47.8v-13H32.2l4.4-2.8
		c10.5-6.6,16.7-15.1,16.7-22.8C53.3,11.4,43.4,3,28.5,3C13.7,3,5.7,13,5.1,23.4l14.2,1.2c0.7-5.1,4.7-8.6,9.9-8.6
		c5.6,0,9.4,3.5,9.4,8.8c0,2.9-1.3,6-7.6,12.7L7,62.5z"/>
</g>
</svg>
