<?xml version="1.0" encoding="utf-8"?>
<!-- Generator: Adobe Illustrator 22.1.0, SVG Export Plug-In . SVG Version: 6.00 Build 0)  -->
<svg version="1.1" id="Capa_1" xmlns="http://www.w3.org/2000/svg" xmlns:xlink="http://www.w3.org/1999/xlink" x="0px" y="0px"
	 viewBox="0 0 55.8 67" style="enable-background:new 0 0 55.8 67;" xml:space="preserve">
<style type="text/css">
	.st0{fill:#94CC5A;}
	.st1{fill:#FFD529;}
	.st2{fill:none;stroke:#95CD58;stroke-width:5;}
	.st3{fill:#95CD58;}
	.st4{fill:#FFCE00;}
	.st5{fill:#95C35B;}
</style>
<g>
	<path class="st4" d="M27.9,67C10.7,67,0,58,0,43.7v-1.4l20.6-1.7v1.6c0,2.9,0.8,6.9,7.9,6.9c3.5,0,6-1.8,6-4.2
		c0-2.2-1.3-4.8-11.6-4.8h-1.5V25.4l1.5,0c2,0.1,7.7-0.3,9.9-2.4c0.5-0.5,0.8-1.1,0.8-1.8c0-1.7-2.3-3.5-5.8-3.5
		c-2.1,0-7,0.6-7.3,6.4l-0.1,1.6L1.3,23.9l0.2-1.5C3,8.4,12.8,0,27.9,0c17.3,0,26.4,10.3,26.4,20.4c0,4.6-2.1,8.6-5.9,11.3
		c4.6,3.1,7.4,8,7.4,13.4C55.8,56,46.2,67,27.9,67z M3,45C3.7,56.9,12.9,64,27.9,64c18.3,0,24.9-11.3,24.9-18.9c0-5.1-3-9.7-7.9-12
		l-2.7-1.3l2.7-1.4c3-1.5,6.5-4.5,6.5-10C51.3,12,44,3,27.9,3C14.9,3,6.5,9.6,4.7,21.2l13.1,1.2c0.9-4.8,4.6-7.7,10.1-7.7
		c5,0,8.8,2.9,8.8,6.5c0,1.5-0.6,2.9-1.7,4c-2.7,2.6-7.9,3.1-10.6,3.2v8.7c4.7,0.1,13.1,0.8,13.1,7.8c0,4.2-3.8,7.2-9,7.2
		c-6.4,0-10.2-2.9-10.8-8.2L3,45z"/>
</g>
</svg>
