<?xml version="1.0" encoding="utf-8"?>
<!-- Generator: Adobe Illustrator 22.1.0, SVG Export Plug-In . SVG Version: 6.00 Build 0)  -->
<svg version="1.1" id="Capa_1" xmlns="http://www.w3.org/2000/svg" xmlns:xlink="http://www.w3.org/1999/xlink" x="0px" y="0px"
	 viewBox="0 0 55.8 65.5" style="enable-background:new 0 0 55.8 65.5;" xml:space="preserve">
<style type="text/css">
	.st0{fill:#94CC5A;}
	.st1{fill:#FFD529;}
	.st2{fill:none;stroke:#95CD58;stroke-width:5;}
	.st3{fill:#95CD58;}
	.st4{fill:#FFCE00;}
	.st5{fill:#95C35B;}
</style>
<g>
	<path class="st4" d="M27.2,65.5C10.9,65.5,0,56.7,0,43.7v-1.4L21,41l0.2,1.4c0.5,3.3,3.3,5.6,6.7,5.6c3.8,0,6.8-2.9,6.8-6.5
		c0-4.7-5.2-5-6.8-5c-2.6,0-4.9,0.9-6.2,2.4l-0.4,0.5H1.2L6.2,0h43.7v19H23.4l-0.2,2.2c3.3-0.8,7.4-0.8,7.6-0.8
		c16.1,0,25,7.2,25,20.4C55.8,55.8,44.5,65.5,27.2,65.5z M3,45.1c0.8,10.6,10,17.4,24.1,17.4c15.8,0,25.6-8.3,25.6-21.8
		c0-14.4-11.9-17.4-22-17.4c-1.7,0-6.5,0.2-8.7,1.3l-2.4,1.2l0.9-9.8h26.3V3h-38L4.6,36.3h15.3c1.9-1.8,4.8-2.9,8-2.9
		c6,0,9.8,3.2,9.8,8c0,5.2-4.4,9.5-9.8,9.5c-4.4,0-8.2-2.8-9.3-6.8L3,45.1z"/>
</g>
</svg>
