<?xml version="1.0" encoding="utf-8"?>
<!-- Generator: Adobe Illustrator 22.1.0, SVG Export Plug-In . SVG Version: 6.00 Build 0)  -->
<svg version="1.1" id="Capa_1" xmlns="http://www.w3.org/2000/svg" xmlns:xlink="http://www.w3.org/1999/xlink" x="0px" y="0px"
	 viewBox="0 0 390.3 145.2" style="enable-background:new 0 0 390.3 145.2;" xml:space="preserve">
<style type="text/css">
	.st0{fill:#94CC5A;}
	.st1{fill:#FFD529;}
	.st2{fill:none;stroke:#95CD58;stroke-width:5;}
	.st3{fill:#95CD58;}
	.st4{fill:#FFCE00;}
	.st5{fill:#95C35B;}
</style>
<g>
	<g>
		<path class="st1" d="M62,142H11.4l48.2-98.8H0V3.2h125.3L62,142z M19.4,137h39.4L117.5,8.2H5v30.1h62.6L19.4,137z"/>
	</g>
	<g>
		<path class="st1" d="M188.9,145.2c-18.2,0-34.6-7.6-46.2-21.5c-11.2-13.3-17.3-31.5-17.3-51.2c0-19.7,6.2-37.8,17.4-51.2
			C154.4,7.6,170.8,0,188.9,0c18,0,34.4,7.6,46.1,21.5c11.3,13.4,17.5,31.5,17.5,51.2c0,19.6-6.2,37.8-17.5,51.2
			C223.3,137.6,206.9,145.2,188.9,145.2z M188.9,5c-33.9,0-58.6,28.4-58.6,67.6s24.6,67.6,58.6,67.6c33.4,0,58.6-29.1,58.6-67.6
			S222.3,5,188.9,5z M188.9,110.2c-13.8,0-25-16.8-25-37.6c0-20.7,11.2-37.6,25-37.6c13.8,0,25,16.8,25,37.6
			C213.9,93.3,202.7,110.2,188.9,110.2z M188.9,40.1c-10.8,0-20,14.9-20,32.6s9.2,32.6,20,32.6c10.8,0,20-14.9,20-32.6
			S199.7,40.1,188.9,40.1z"/>
	</g>
	<g>
		<path class="st1" d="M327.1,145.2c-18.2,0-34.6-7.6-46.2-21.5c-11.2-13.3-17.3-31.5-17.3-51.2c0-19.7,6.2-37.8,17.4-51.2
			C292.6,7.6,309,0,327.1,0c18,0,34.4,7.6,46.1,21.5c11.3,13.4,17.5,31.5,17.5,51.2c0,19.6-6.2,37.8-17.5,51.2
			C361.5,137.6,345.1,145.2,327.1,145.2z M327.1,5c-33.9,0-58.6,28.4-58.6,67.6s24.6,67.6,58.6,67.6c33.4,0,58.6-29.1,58.6-67.6
			S360.5,5,327.1,5z M327.1,110.2c-13.8,0-25-16.8-25-37.6c0-20.7,11.2-37.6,25-37.6s25,16.8,25,37.6
			C352.1,93.3,340.9,110.2,327.1,110.2z M327.1,40.1c-10.8,0-20,14.9-20,32.6s9.2,32.6,20,32.6s20-14.9,20-32.6
			S337.9,40.1,327.1,40.1z"/>
	</g>
</g>
</svg>
