<?xml version="1.0" encoding="utf-8"?>
<!-- Generator: Adobe Illustrator 22.1.0, SVG Export Plug-In . SVG Version: 6.00 Build 0)  -->
<svg version="1.1" id="Capa_1" xmlns="http://www.w3.org/2000/svg" xmlns:xlink="http://www.w3.org/1999/xlink" x="0px" y="0px"
	 viewBox="0 0 321.6 321.9" style="enable-background:new 0 0 321.6 321.9;" xml:space="preserve">
<style type="text/css">
	.st0{fill:#94CC5A;}
	.st1{fill:#FFD529;}
	.st2{fill:none;stroke:#95CD58;stroke-width:5;}
	.st3{fill:#95CD58;}
	.st4{fill:#FFCE00;}
	.st5{fill:#95C35B;}
</style>
<g>
	<path class="st5" d="M9.4,252.5v-10.2h112.1v10.2c0,5.9-4.8,10.7-10.7,10.7H20.1C14.2,263.1,9.4,258.4,9.4,252.5z M20.1,59.5h90.7
		c5.9,0,10.7,4.8,10.7,10.7v0.3H9.4v-0.3C9.4,64.2,14.2,59.5,20.1,59.5z M121.6,232.8H9.4V79.9h112.1V232.8z M131,252.5V70.2
		C131,59,122,50,110.9,50H20.1C9,50,0,59.1,0,70.2v182.3c0,11.1,9.1,20.1,20.1,20.1h90.7C122,272.6,131,263.5,131,252.5z"/>
	<rect x="55.4" y="247.9" class="st5" width="20.1" height="9.4"/>
	<path class="st5" d="M301.5,263.1h-90.7c-5.9,0-10.7-4.8-10.7-10.7v-10.2h112.1v10.2C312.2,258.4,307.4,263.1,301.5,263.1z
		 M210.8,59.5h90.7c5.9,0,10.7,4.8,10.7,10.7v0.3H200.1v-0.3C200.1,64.2,204.9,59.5,210.8,59.5z M312.2,232.8H200.1V79.9h112.1
		L312.2,232.8z M301.5,50h-90.7c-11.1,0-20.1,9.1-20.1,20.1v182.3c0,11.1,9.1,20.1,20.1,20.1h90.7c11.1,0,20.1-9.1,20.1-20.1V70.2
		C321.6,59,312.6,50,301.5,50z"/>
	<rect x="246.1" y="247.9" class="st5" width="20.1" height="9.4"/>
	<path class="st5" d="M160.9,312.4c-25.2,0-49.2-7.2-70-20.8l15-2.4l-1.5-9.3l-30.2,4.8L79,315l9.3-1.5l-2.2-13.8
		c22.3,14.6,47.9,22.2,74.9,22.2c31.1,0,60.3-10.1,84.8-29.2l-5.8-7.4C217.2,303,189.8,312.4,160.9,312.4z"/>
	<path class="st5" d="M160.9,9.4c26.8,0,52.2,8,73.9,23.4L219,34.9l1.3,9.4l30.4-4l-4-30.4l-9.4,1.3l1.8,13.2
		C216,8.4,189.2,0,160.9,0c-31.1,0-60.3,10.1-84.8,29.2l5.8,7.4C104.7,18.9,132,9.4,160.9,9.4z"/>
	<path class="st5" d="M56.5,136.7c1.1-0.8,2.5-1.4,4.3-1.7v14.3c-1.2-0.4-2.2-0.9-3.1-1.3c-1.3-0.7-2.2-1.4-2.8-2.4
		c-0.6-0.9-1-2-1-3.4C53.9,139.9,54.8,138,56.5,136.7z M71.9,166.2c1.5,0.8,2.6,1.6,3.5,2.6c0.8,1,1.2,2.2,1.2,3.6
		c0,3.5-2.1,5.6-6.3,6.4v-13.4C70.8,165.7,71.3,166,71.9,166.2z M45.3,155.6c1.6,1.4,3.5,2.6,5.8,3.6c2.3,1,5.1,1.9,8.2,2.8
		c0.5,0.1,0.9,0.3,1.4,0.4v16.3c-0.8-0.1-1.6-0.3-2.3-0.5c-2.4-0.6-4.6-1.4-6.6-2.3c-2-0.9-3.7-1.8-5.2-2.7c-1.4-0.9-2.5-1.6-3-2.2
		L38,182.2c3.8,2.7,8.2,4.8,13,6.3c3.2,1,6.5,1.6,9.7,1.9V201h9.4v-10.6c1.6-0.2,3.2-0.4,4.7-0.8c3-0.7,5.5-1.8,7.8-3.4
		c2.3-1.6,4.1-3.6,5.4-6.1c1.3-2.5,2-5.5,2-9.1c0-3-0.5-5.6-1.5-7.7c-1-2.1-2.4-3.8-4.2-5.3c-1.8-1.5-4.1-2.7-6.7-3.7
		c-2.3-0.9-4.8-1.7-7.5-2.5v-16.5c0,0,0,0,0.1,0c1.9,0.5,3.7,1.1,5.3,1.8c1.6,0.7,3,1.4,4.2,2.2c1.1,0.8,1.9,1.3,2.4,1.8l5.7-10.4
		c-2.9-2-6.3-3.7-10.2-5.2c-2.3-0.9-4.8-1.4-7.4-1.8v-10.6h-9.4v10.4c-1.9,0.2-3.6,0.6-5.4,1.1c-2.9,0.9-5.5,2.2-7.7,4
		c-2.2,1.8-3.9,3.9-5.2,6.5c-1.3,2.6-1.9,5.6-1.9,8.9c0,2.5,0.4,4.7,1.1,6.5C42.6,152.7,43.8,154.3,45.3,155.6z"/>
	<path class="st5" d="M229.7,139.9h4.6v7.4h9.4v-7.4h25.1v7.4h9.4v-7.4h4.6V202h-53.1L229.7,139.9z M256.2,119.9
		c6.2,0,11.4,4.6,12.4,10.6h-24.8C244.8,124.5,250,119.9,256.2,119.9z M220.3,211.4h72v-81h-14.1c-1-11.2-10.4-20-21.9-20
		c-11.4,0-20.9,8.8-21.9,20h-14.1L220.3,211.4z"/>
</g>
</svg>
