<?xml version="1.0" encoding="utf-8"?>
<!-- Generator: Adobe Illustrator 22.1.0, SVG Export Plug-In . SVG Version: 6.00 Build 0)  -->
<svg version="1.1" id="Capa_1" xmlns="http://www.w3.org/2000/svg" xmlns:xlink="http://www.w3.org/1999/xlink" x="0px" y="0px"
	 viewBox="0 0 191.1 323.6" style="enable-background:new 0 0 191.1 323.6;" xml:space="preserve">
<style type="text/css">
	.st0{fill:#94CC5A;}
	.st1{fill:#FFD529;}
	.st2{fill:none;stroke:#95CD58;stroke-width:5;}
	.st3{fill:#95CD58;}
	.st4{fill:#FFCE00;}
	.st5{fill:#95C35B;}
</style>
<g>
	<path class="st2" d="M169.5,3L21.7,2.5c-9.5,0-18.2,6.4-18.3,17.9L2.5,296.8c0,11.5,8.6,23.8,18.1,23.8l147.8,0.5
		c9.5,0,19.1-12.2,19.1-23.7L188.6,21C188.6,9.5,179.1,3,169.5,3z M72.9,20l46.3,0.2c1.6,0,2.9,1.3,2.9,2.9c0,1.6-1.3,2.9-2.9,2.9
		l-46.3-0.2c-1.6,0-2.9-1.3-2.9-2.9C70,21.3,71.3,20,72.9,20z M95.3,303.1c-6.5,0-11.8-5.4-11.8-11.9c0-6.5,5.3-11.8,11.8-11.8
		c6.5,0,11.8,5.3,11.8,11.8C107.1,297.8,101.8,303.1,95.3,303.1z M176.2,237.7c0,9.4-5.5,19.8-15.9,19.7L35.8,257
		c-10.3,0-21.5-10.5-21.5-19.9l0.6-186c0-9.3,11.3-14,21.6-13.9l124.6,0.4c10.3,0,15.8,4.7,15.7,14.1L176.2,237.7z"/>
	<path class="st3" d="M117.6,118.7c0.9,0.3,1.6,0.5,2.3,0.9c2.4,1.2,4,3,4.9,5.5c0.6,1.6,1,3.2,1.1,4.9c0.1,1,0.1,2,0.1,3
		c0,2,0,4,0,6c-0.1,2-0.4,4-1.1,5.9c-1.4,3.7-4,6.1-7.9,7.1c-1.8,0.5-3.7,0.7-5.5,0.7c-4.8,0-9.5,0-14.3,0c-0.1,0-0.1,0-0.2,0
		c-0.2,0-0.3-0.1-0.3-0.3c0-0.1,0-0.2,0-0.2V89.4c0-0.5,0-0.5,0.5-0.5c4.8,0,9.5,0,14.3,0c1.8,0,3.6,0.2,5.3,0.7
		c3.5,1,5.8,3.1,7,6.5c0.5,1.3,0.8,2.7,0.9,4.1c0.2,2.7,0.2,5.3,0.1,8c-0.1,1.7-0.4,3.5-1.1,5.1c-0.8,2.1-2.3,3.6-4.3,4.6
		C118.9,118.2,118.3,118.4,117.6,118.7z M104,134.3v11.5c0,0.4,0,0.4,0.4,0.4c2.4,0,4.8,0,7.3,0c0.8,0,1.6-0.1,2.3-0.3
		c2.3-0.5,3.8-1.9,4.5-4.1c0.4-1.3,0.6-2.6,0.6-3.9c0-2.2,0-4.3,0-6.5c0-1.3-0.2-2.5-0.5-3.8c-0.6-2.4-2-3.9-4.4-4.6
		c-1.2-0.4-2.4-0.5-3.7-0.5c-2.1,0-4.2,0-6.3,0c-0.3,0-0.3,0-0.3,0.3c0,0.1,0,0.2,0,0.2V134.3z M104,105.6c0,3.3,0,6.6,0,10
		c0,0.4,0,0.4,0.4,0.4c1.6,0,3.1,0,4.7,0c0.8,0,1.6,0,2.4-0.1c1.1-0.1,2.1-0.4,3.1-0.8c1.4-0.6,2.4-1.7,2.9-3.1
		c0.4-1.2,0.6-2.5,0.6-3.7c0-1.8,0-3.5,0-5.3c0-1.3-0.2-2.6-0.7-3.9c-0.6-1.8-1.9-2.9-3.7-3.4c-0.8-0.2-1.5-0.3-2.3-0.3
		c-2.3,0-4.7,0-7,0c-0.3,0-0.3,0-0.3,0.3c0,0.1,0,0.1,0,0.2V105.6z"/>
	<path class="st3" d="M73.6,122.8c-1.4-0.4-2.6-0.9-3.7-1.7c-1.7-1.1-2.8-2.7-3.5-4.6c-0.6-1.5-1-3-1.1-4.6
		c-0.1-1.1-0.2-2.2-0.2-3.3c0-1.6,0-3.3,0-4.9c0-2.1,0.2-4.2,0.9-6.2c0.6-1.9,1.5-3.5,2.9-4.9c1.5-1.6,3.3-2.5,5.4-3
		c1.5-0.4,3.1-0.6,4.6-0.6c5.1,0,10.1,0,15.2,0c0.3,0,0.3,0,0.3,0.3v0.2c0,20.9,0,41.8,0,62.7c0,0.6,0.1,0.5-0.5,0.5
		c-4.6,0-9.2,0-13.8,0c-1.9,0-3.9-0.2-5.7-0.7c-1.5-0.4-3-1.1-4.2-2.1c-1.4-1.2-2.3-2.8-2.9-4.5c-0.5-1.5-0.8-3-0.9-4.5
		c-0.2-2.2-0.1-4.5-0.1-6.7c0.1-1.9,0.4-3.7,1-5.5c0.9-2.6,2.6-4.3,5.1-5.3C72.7,123.2,73.1,123,73.6,122.8z M87.2,107.2V95.8
		c0-0.1,0-0.2,0-0.3c0-0.1,0-0.2-0.2-0.2c-0.1,0-0.1,0-0.2,0c-2.4,0-4.9,0-7.3,0c-0.6,0-1.3,0.1-1.9,0.2c-2.3,0.4-4,1.7-4.8,4
		c-0.5,1.2-0.7,2.4-0.7,3.7c0,2.5,0,5,0,7.4c0,1.4,0.2,2.8,0.7,4.1c0.6,1.7,1.7,2.9,3.4,3.6c1.2,0.5,2.6,0.8,3.9,0.8
		c2.3,0,4.6,0,6.9,0c0.2,0,0.3,0,0.3-0.3c0-0.1,0-0.2,0-0.3V107.2z M87.2,135.9v-2.3V126c0-0.4,0-0.4-0.4-0.4c-1.1,0-2.3,0-3.4,0
		c-1.1,0-2.2,0-3.4,0.1c-1,0.1-2,0.3-2.9,0.6c-1.8,0.7-3,1.9-3.5,3.8c-0.2,0.8-0.4,1.7-0.4,2.6c-0.1,2-0.1,4,0,6.1
		c0,1.1,0.2,2.2,0.5,3.3c0.6,2.1,2,3.5,4.2,4c0.8,0.2,1.6,0.2,2.4,0.2c2.2,0,4.3,0,6.5,0c0.1,0,0.2,0,0.2,0c0.2,0,0.2-0.1,0.2-0.2
		c0-0.1,0-0.2,0-0.3V135.9z"/>
	<path class="st3" d="M94.9,164.2c9.8,0,19.7,0,29.5,0c0.6,0,0.5-0.1,0.5,0.5c0,1.4,0,2.9,0,4.3c0,0.3,0,0.3-0.3,0.4h-0.2H65.5
		c-0.5,0-0.5,0-0.5-0.5c0-1.4,0-2.9,0-4.3c0-0.3,0-0.3,0.3-0.3c0.1,0,0.2,0,0.2,0H94.9z"/>
	<path class="st3" d="M77.1,195.2c0.1,0,0.1,0.1,0.2,0.1c1.5,0.5,2.4,1.6,2.8,3.1c0.1,0.6,0.2,1.1,0.2,1.7c0,1.1,0,2.2,0,3.2
		c0,0.8-0.2,1.6-0.5,2.3c-0.6,1.5-1.8,2.3-3.4,2.7c-0.5,0.1-1.1,0.2-1.7,0.2c-1.8,0-3.6,0-5.5,0c-0.1,0-0.1,0-0.2,0
		c-0.2,0-0.3,0-0.2-0.2c0-0.1,0-0.2,0-0.2c0-8,0-16,0-24c0-0.5-0.1-0.5,0.5-0.5c1.7,0,3.4,0,5.2,0c0.7,0,1.5,0.1,2.2,0.2
		c1.4,0.4,2.4,1.2,2.8,2.6c0.3,0.7,0.4,1.5,0.4,2.2c0,0.9,0.1,1.9-0.1,2.8c-0.1,0.7-0.2,1.3-0.5,1.9c-0.4,0.8-1,1.3-1.7,1.6
		C77.4,195,77.3,195.1,77.1,195.2z M71.7,201.3v4.2c0,0.1,0,0.2,0,0.3c0,0.2,0.1,0.2,0.2,0.2c1.1,0,2.2,0.1,3.3,0
		c1.1-0.1,1.8-0.7,2.2-1.7c0.1-0.4,0.2-0.9,0.2-1.3c0-1,0-1.9,0-2.9c0-0.5-0.1-1.1-0.3-1.6c-0.2-0.6-0.6-1.1-1.2-1.3
		c-0.5-0.2-1.1-0.3-1.6-0.3c-0.8,0-1.6,0-2.4,0c0,0-0.1,0-0.1,0c-0.1,0-0.2,0-0.2,0.2c0,0.1,0,0.2,0,0.3V201.3z M71.7,190.1
		c0,1.2,0,2.5,0,3.7c0,0.3,0,0.3,0.3,0.3c0.4,0,0.8,0,1.2,0c0.6,0,1.2,0,1.8-0.1c1-0.2,1.8-0.7,2-1.8c0.1-0.2,0.1-0.5,0.1-0.7
		c0.1-0.7,0.1-1.5,0-2.2c0-0.6,0-1.1-0.2-1.7c-0.3-1-1-1.5-2-1.6c-1-0.1-1.9,0-2.9,0c-0.4,0-0.4,0-0.4,0.4
		C71.7,187.6,71.7,188.9,71.7,190.1z"/>
	<path class="st3" d="M95.7,208.5c-0.9,0-1.7,0-2.6,0c-0.2,0-0.2-0.1-0.2-0.2c-0.1-0.8-0.3-1.5-0.4-2.3c-0.1-0.7-0.3-1.5-0.4-2.2
		c-0.1-0.3-0.1-0.3-0.4-0.3c-1.9,0-3.8,0-5.7,0c-0.3,0-0.3,0-0.4,0.3c-0.3,1.3-0.5,2.6-0.7,3.9c0,0.2-0.1,0.4-0.1,0.6
		c0,0.1-0.1,0.2-0.2,0.2c-0.8,0-1.6,0-2.4,0c0.1-0.6,0.2-1.2,0.3-1.8c0.5-2.7,1-5.5,1.6-8.2c0.6-3,1.1-6,1.7-8.9
		c0.4-1.9,0.7-3.8,1.1-5.6c0.1-0.3,0.1-0.3,0.4-0.3c1.1,0,2.2,0,3.4,0c0.3,0,0.3,0,0.4,0.3c0.6,3.1,1.2,6.1,1.8,9.2
		c0.6,3.3,1.3,6.6,1.9,9.9c0.3,1.8,0.7,3.6,1,5.4C95.7,208.4,95.7,208.4,95.7,208.5z M86.1,201c0.1,0,0.2,0,0.2,0c1.7,0,3.4,0,5,0
		c0.3,0,0.3,0,0.2-0.3c-0.2-1-0.4-2-0.6-3.1c-0.7-3.5-1.4-7.1-2.1-10.6c0-0.1,0-0.2-0.1-0.2C87.8,191.6,87,196.3,86.1,201z"/>
	<path class="st3" d="M122.3,193.7c0,2.9,0,5.7,0,8.6c0,0.8-0.1,1.7-0.3,2.5c-0.1,0.4-0.3,0.8-0.5,1.2c-0.8,1.6-2,2.5-3.8,2.7
		c-0.9,0.1-1.7,0.1-2.6-0.1c-1.5-0.3-2.6-1.1-3.3-2.4c-0.5-0.9-0.7-1.9-0.8-3c0-0.3,0-0.5,0-0.8c0-6.2,0-12.3,0-18.5
		c0-0.1,0-0.1,0-0.2c0-0.3,0-0.3,0.3-0.3c0.7,0,1.5,0,2.2,0c0.2,0,0.3,0.1,0.3,0.3c0,0.1,0,0.2,0,0.3c0,6.1,0,12.2,0,18.3
		c0,0.6,0,1.2,0.2,1.8c0.5,1.6,1.5,2,2.8,2c0.2,0,0.5,0,0.7-0.1c0.9-0.2,1.5-0.7,1.8-1.6c0.2-0.6,0.3-1.2,0.3-1.8c0-0.5,0-1.1,0-1.6
		c0-5.7,0-11.4,0-17.1c0-0.5-0.1-0.5,0.5-0.5c0.6,0,1.2,0,1.8,0c0.3,0,0.3,0,0.3,0.3c0,0.9,0,1.7,0,2.6V193.7z"/>
	<path class="st3" d="M107.4,190.2c-0.3,0-0.6,0-1,0c-0.4,0-0.4,0-0.4-0.4c0-0.6,0-1.1-0.1-1.7c-0.1-0.4-0.2-0.8-0.4-1.2
		c-0.3-0.5-0.7-0.9-1.3-1c-0.7-0.2-1.5-0.2-2.2,0c-0.7,0.2-1.1,0.7-1.4,1.3c-0.6,1.6-0.6,3.2,0.4,4.6c0.7,1.1,1.6,1.9,2.6,2.7
		c0.9,0.8,1.9,1.5,2.7,2.3c0.6,0.6,1.2,1.4,1.6,2.1c0.7,1.3,0.9,2.7,0.8,4.2c-0.1,0.9-0.3,1.8-0.7,2.7c-0.8,1.6-2,2.4-3.7,2.7
		c-0.9,0.1-1.9,0.1-2.8-0.1c-1.7-0.3-2.8-1.4-3.5-3c-0.3-0.9-0.5-1.8-0.5-2.7c0-0.5,0-1,0-1.6c0-0.3,0-0.3,0.3-0.3c0.7,0,1.4,0,2,0
		c0.2,0,0.3,0.1,0.3,0.3c0,0.6,0,1.1,0,1.7c0,0.5,0.1,1.1,0.3,1.6c0.4,1,1.1,1.5,2.1,1.6c0.5,0,1,0,1.4-0.1c0.7-0.2,1.3-0.6,1.6-1.3
		c0.6-1.6,0.6-3.2-0.3-4.7c-0.5-0.9-1.2-1.6-2-2.2c-0.6-0.6-1.3-1.1-1.9-1.6c-0.9-0.8-1.8-1.7-2.5-2.7c-0.6-0.9-1-1.9-1.1-3
		c-0.1-1.5,0-2.9,0.5-4.3c0.7-1.6,1.9-2.6,3.7-2.8c0.9-0.1,1.9-0.1,2.8,0c1.7,0.3,2.9,1.4,3.5,3c0.4,1.1,0.5,2.3,0.5,3.5
		c0,0.2-0.1,0.2-0.2,0.2C108.1,190.2,107.8,190.2,107.4,190.2L107.4,190.2z"/>
</g>
</svg>
