<?xml version="1.0" encoding="utf-8"?>
<!-- Generator: Adobe Illustrator 22.1.0, SVG Export Plug-In . SVG Version: 6.00 Build 0)  -->
<svg version="1.1" id="Capa_1" xmlns="http://www.w3.org/2000/svg" xmlns:xlink="http://www.w3.org/1999/xlink" x="0px" y="0px"
	 viewBox="0 0 533.4 226.4" style="enable-background:new 0 0 533.4 226.4;" xml:space="preserve">
<style type="text/css">
	.st0{fill:#94CC5A;}
	.st1{fill:#FFD529;}
	.st2{fill:none;stroke:#95CD58;stroke-width:5;}
	.st3{fill:#95CD58;}
	.st4{fill:#FFCE00;}
	.st5{fill:#95C35B;}
</style>
<g>
	<g>
		<g>
			<path class="st3" d="M108.2,100.4c-22.2,0-24.6-13.3-24.6-18.9c0-7.3,3.8-10.6,9.5-15.7c2.4-2.1,6.1-5.3,6.2-10.5l0-1.5h7.5
				c-5.1-0.7-9-5-9-10.1c0-5.6,4.7-10.2,10.5-10.2c5.8,0,10.5,4.6,10.5,10.2c0,5.2-3.9,9.5-9,10.1h7.5v1.5c0,7.9-2.9,12.4-5.3,14.9
				c-1,1-2,1.9-2.8,2.7c-2.6,2.4-3.8,3.6-3.8,5c0,2.7,2.3,4,6.8,4c3.4,0,8.1-1.1,11.1-4l1.5-1.5l7.9,15.6l-0.9,0.8
				C125.4,97.9,117.7,100.4,108.2,100.4z M102.1,56.8c-0.7,5.6-4.7,9.1-7.1,11.3c-5.9,5.2-8.4,7.7-8.4,13.4c0,6,2.8,15.9,21.6,15.9
				c8.4,0,15.1-2,20.5-6.2l-5-9.9c-3.5,2.6-8.2,3.6-11.6,3.6c-8.8,0-9.8-4.9-9.8-7c0-2.7,2-4.6,4.8-7.2c0.8-0.8,1.8-1.6,2.8-2.6
				c2.6-2.6,4.1-6.5,4.4-11.3H102.1z M108.2,36.4c-4.1,0-7.5,3.2-7.5,7.2c0,4,3.3,7.2,7.5,7.2c4.1,0,7.5-3.2,7.5-7.2
				C115.6,39.7,112.3,36.4,108.2,36.4z"/>
		</g>
		<g>
			<path class="st3" d="M171.8,85.9c-20.3,0-36.7-15-36.7-33.5s16.5-33.5,36.7-33.5c8.3,0,16.8,2.9,22.4,7.6l0.9,0.7l-8.2,18
				l-1.5-1.7c-3.3-3.6-8-5.7-13.1-5.7c-9,0-16.3,6.5-16.3,14.5c0,8,7.3,14.5,16.3,14.5c5,0,9.8-2.1,13.1-5.7l1.5-1.7l8.2,17.9
				l-0.9,0.7C188.5,82.9,180,85.9,171.8,85.9z M171.8,21.9c-18.6,0-33.7,13.7-33.7,30.5s15.1,30.5,33.7,30.5c7,0,14.5-2.4,19.6-6.3
				l-5.4-11.8c-3.7,3.3-8.6,5.1-13.7,5.1c-10.6,0-19.3-7.8-19.3-17.5c0-9.6,8.7-17.5,19.3-17.5c5.1,0,10,1.8,13.7,5.1l5.4-11.9
				C186.4,24.3,178.8,21.9,171.8,21.9z"/>
		</g>
		<g>
			<path class="st3" d="M232,85.9c-19.7,0-35.8-15-35.8-33.5s16.1-33.5,35.8-33.5c19.7,0,35.8,15,35.8,33.5S251.7,85.9,232,85.9z
				 M232,21.9c-18.1,0-32.8,13.7-32.8,30.5s14.7,30.5,32.8,30.5c18.1,0,32.8-13.7,32.8-30.5S250.1,21.9,232,21.9z M232,69.9
				c-9.9,0-17.9-7.8-17.9-17.5s8-17.5,17.9-17.5c9.9,0,17.9,7.8,17.9,17.5S241.9,69.9,232,69.9z M232,37.9
				c-8.2,0-14.9,6.5-14.9,14.5s6.7,14.5,14.9,14.5c8.2,0,14.9-6.5,14.9-14.5S240.2,37.9,232,37.9z M236.3,17.5h-15.2L231.9,0h22.4
				L236.3,17.5z M226.5,14.5h8.6L247,3h-13.4L226.5,14.5z"/>
		</g>
		<g>
			<path class="st3" d="M350,84.4h-20.9l-2.4-26.1l-8.5,26.1H301l-8.5-26.1l-2.4,26.1h-20.9l6.3-64.1h20.3l13.9,33.9l13.9-33.9h20.3
				L350,84.4z M331.8,81.4h14.9L341,23.4h-15.5l-15.9,38.8l-15.9-38.8h-15.5l-5.7,58.1h14.9l2.9-30.6l2.9-0.3l10.1,31H316l10.1-31
				l2.9,0.3L331.8,81.4z"/>
		</g>
		<g>
			<path class="st3" d="M387.2,85.9c-19.7,0-35.8-15-35.8-33.5c0-18.5,16.1-33.5,35.8-33.5c19.7,0,35.8,15,35.8,33.5
				C423,70.9,406.9,85.9,387.2,85.9z M387.2,21.9c-18.1,0-32.8,13.7-32.8,30.5c0,16.8,14.7,30.5,32.8,30.5
				c18.1,0,32.8-13.7,32.8-30.5C420,35.6,405.3,21.9,387.2,21.9z M387.2,69.9c-9.9,0-17.9-7.8-17.9-17.5c0-9.6,8-17.5,17.9-17.5
				c9.9,0,17.9,7.8,17.9,17.5C405.1,62,397,69.9,387.2,69.9z M387.2,37.9c-8.2,0-14.9,6.5-14.9,14.5c0,8,6.7,14.5,14.9,14.5
				c8.2,0,14.9-6.5,14.9-14.5C402.1,44.4,395.4,37.9,387.2,37.9z"/>
		</g>
		<g>
			<path class="st3" d="M20.9,193.5H0v-64.1h44.8v19H20.9v4.3h19.4v17.5H20.9V193.5z M3,190.5h14.9v-23.3h19.4v-11.5H17.9v-10.3
				h23.9v-13H3V190.5z"/>
		</g>
		<g>
			<path class="st3" d="M79.1,194.9c-18.7,0-31.3-11.7-31.3-29.1v-36.4h22.4V166c0,6.8,4.6,10,8.9,10s8.9-3.1,8.9-10v-36.6h22.4
				v36.4C110.4,183.2,97.8,194.9,79.1,194.9z M50.7,132.4v33.4c0,15.9,11.1,26.1,28.3,26.1s28.3-10.3,28.3-26.1v-33.4H91V166
				c0,8.5-6,13-11.9,13c-5.9,0-11.9-4.4-11.9-13v-33.6H50.7z"/>
		</g>
		<g>
			<path class="st3" d="M179,193.5h-20.2l-21.6-30.3v30.3h-20.9v-64.1h20.2l21.6,30.3v-30.3H179V193.5z M160.4,190.5H176v-58.1
				h-14.9V169L135,132.4h-15.6v58.1h14.9v-36.6L160.4,190.5z"/>
		</g>
		<g>
			<path class="st3" d="M220.3,194.9c-20.3,0-36.7-15-36.7-33.5s16.5-33.5,36.7-33.5c8.3,0,16.8,2.9,22.4,7.6l0.9,0.7l-8.2,18
				l-1.5-1.7c-3.3-3.6-8-5.7-13.1-5.7c-9,0-16.3,6.5-16.3,14.5c0,8,7.3,14.5,16.3,14.5c5,0,9.8-2.1,13.1-5.7l1.5-1.7l8.2,17.9
				l-0.9,0.7C237,192,228.4,194.9,220.3,194.9z M220.3,130.9c-18.6,0-33.7,13.7-33.7,30.5s15.1,30.5,33.7,30.5
				c7,0,14.5-2.4,19.6-6.3l-5.4-11.8c-3.7,3.3-8.6,5.1-13.7,5.1c-10.6,0-19.3-7.8-19.3-17.5c0-9.6,8.7-17.5,19.3-17.5
				c5.1,0,10,1.8,13.7,5.1l5.4-11.9C234.8,133.4,227.3,130.9,220.3,130.9z"/>
		</g>
		<g>
			<path class="st3" d="M268.6,193.5h-20.9v-64.1h20.9V193.5z M250.7,190.5h14.9v-58.1h-14.9V190.5z"/>
		</g>
		<g>
			<path class="st3" d="M308.8,194.9c-19.7,0-35.8-15-35.8-33.5c0-18.5,16.1-33.5,35.8-33.5c19.7,0,35.8,15,35.8,33.5
				C344.6,179.9,328.6,194.9,308.8,194.9z M308.8,130.9c-18.1,0-32.8,13.7-32.8,30.5c0,16.8,14.7,30.5,32.8,30.5
				c18.1,0,32.8-13.7,32.8-30.5C341.6,144.6,326.9,130.9,308.8,130.9z M308.8,178.9c-9.9,0-17.9-7.8-17.9-17.5
				c0-9.6,8-17.5,17.9-17.5c9.9,0,17.9,7.8,17.9,17.5C326.7,171.1,318.7,178.9,308.8,178.9z M308.8,146.9c-8.2,0-14.9,6.5-14.9,14.5
				c0,8,6.7,14.5,14.9,14.5c8.2,0,14.9-6.5,14.9-14.5C323.7,153.4,317.1,146.9,308.8,146.9z"/>
		</g>
		<g>
			<path class="st3" d="M411.8,193.5h-20.2L370,163.2v30.3h-20.9v-64.1h20.2l21.6,30.3v-30.3h20.9V193.5z M393.2,190.5h15.6v-58.1
				h-14.9V169l-26.1-36.6h-15.6v58.1H367v-36.6L393.2,190.5z"/>
		</g>
		<g>
			<path class="st3" d="M485.7,193.5h-21.5l-4-10.2H438l-4,10.2h-21.5l27.2-64.1h18.8L485.7,193.5z M466.2,190.5h14.9l-24.6-58.1
				h-14.8L417,190.5h14.9l4-10.2h26.3L466.2,190.5z M458.2,170.2H440l9.1-23L458.2,170.2z M444.4,167.2h9.4l-4.7-11.9L444.4,167.2z"
				/>
		</g>
		<g>
			<path class="st3" d="M508.8,194.9c-5.8,0-10.5-4.6-10.5-10.2c0-5.2,3.9-9.5,9-10.1h-7.6v-1.5c0-7.9,2.9-12.4,5.3-14.9
				c1-1,2-1.9,2.8-2.7c2.6-2.4,3.8-3.6,3.8-5c0-2.7-2.3-4-6.8-4c-3.4,0-8.1,1.1-11.1,4l-1.5,1.5l-7.9-15.6l0.9-0.8
				c6.1-5.1,13.8-7.6,23.3-7.6c22.2,0,24.6,13.3,24.6,18.9c0,7.3-3.8,10.7-9.5,15.7c-2.4,2.1-6.1,5.4-6.2,10.5l0,1.5h-7.5
				c5.1,0.7,9,5,9,10.1C519.2,190.3,514.5,194.9,508.8,194.9z M508.8,177.5c-4.1,0-7.5,3.2-7.5,7.2s3.3,7.2,7.5,7.2
				c4.1,0,7.5-3.2,7.5-7.2S512.9,177.5,508.8,177.5z M502.8,171.6h12c0.7-5.6,4.7-9.1,7.1-11.3c5.9-5.2,8.4-7.7,8.4-13.4
				c0-6-2.8-15.9-21.6-15.9c-8.4,0-15.1,2-20.5,6.2l5,9.9c3.5-2.6,8.2-3.6,11.6-3.6c8.8,0,9.8,4.9,9.8,7c0,2.7-2,4.6-4.8,7.2
				c-0.8,0.8-1.8,1.6-2.8,2.6C504.6,163,503.1,166.8,502.8,171.6z"/>
		</g>
	</g>
	<g>
		<path class="st4" d="M266.7,220.8c10.9,0,21.8,0,32.8,0c0.6,0,0.5-0.1,0.5,0.5c0,1.6,0,3.2,0,4.8c0,0.4,0,0.4-0.4,0.4
			c-0.1,0-0.1,0-0.2,0H234c-0.6,0-0.6,0-0.6-0.6c0-1.6,0-3.2,0-4.8c0-0.3,0-0.3,0.3-0.3c0.1,0,0.2,0,0.3,0H266.7z"/>
	</g>
</g>
</svg>
