<?xml version="1.0" encoding="utf-8"?>
<!-- Generator: Adobe Illustrator 22.1.0, SVG Export Plug-In . SVG Version: 6.00 Build 0)  -->
<svg version="1.1" id="Capa_1" xmlns="http://www.w3.org/2000/svg" xmlns:xlink="http://www.w3.org/1999/xlink" x="0px" y="0px"
	 viewBox="0 0 91.1 57.5" style="enable-background:new 0 0 91.1 57.5;" xml:space="preserve">
<style type="text/css">
	.st0{fill:#94CC5A;}
	.st1{fill:#FFD529;}
	.st2{fill:none;stroke:#95CD58;stroke-width:5;}
	.st3{fill:#95CD58;}
	.st4{fill:#FFCE00;}
	.st5{fill:#95C35B;}
</style>
<g>
	<g>
		<polygon class="st4" points="66.2,46 63.1,42.8 59.9,46 57.8,43.9 63.1,38.6 68.3,43.9 		"/>
	</g>
	<g>
		<rect x="61.6" y="41" class="st4" width="3" height="8.7"/>
	</g>
	<g>
		<path class="st4" d="M47.8,51.6H15c-8.3,0-15-6.7-15-15c0-7.6,5.8-14,13.3-14.9C14,9.6,24.1,0,36.4,0C45,0,52.7,4.7,56.7,12.1
			c2.3-1.9,5.1-2.9,8.1-2.9c7,0,12.7,5.6,12.8,12.6c7.6,0.8,13.5,7.2,13.5,14.9c0,7.5-5.4,13.8-12.7,14.8l-0.4-3
			c5.9-0.9,10.2-5.8,10.2-11.9c0-6.6-5.4-12-12-12h-1.5v-2.7c0-5.4-4.4-9.8-9.8-9.8c-2.8,0-5.5,1.2-7.5,3.4l-1.6,1.8l-0.9-2.2
			C51.8,7.8,44.5,3,36.4,3c-11.1,0-20.2,9-20.2,20.2v1.5l-1.5,0C8.2,24.8,3,30,3,36.6c0,6.6,5.4,12,12,12h32.8V51.6z"/>
	</g>
	<g>
		<path class="st4" d="M63.1,57.5c-1.6,0-3.2-0.3-4.7-0.9c-1.5-0.6-2.8-1.5-4-2.7c-1.1-1.1-2-2.5-2.7-4c-0.6-1.5-0.9-3.1-0.9-4.7
			c0-1.6,0.3-3.2,0.9-4.7c0.6-1.5,1.5-2.8,2.7-4c1.1-1.1,2.5-2,4-2.7c3-1.2,6.4-1.2,9.4,0c1.5,0.6,2.8,1.5,4,2.7s2,2.5,2.7,4
			c0.6,1.5,0.9,3.1,0.9,4.7c0,1.6-0.3,3.2-0.9,4.7s-1.5,2.8-2.7,4s-2.5,2-4,2.7S64.7,57.5,63.1,57.5z M63.1,36
			c-1.2,0-2.4,0.2-3.5,0.7c-1.1,0.5-2.1,1.1-3,2c-0.9,0.9-1.5,1.9-2,3s-0.7,2.3-0.7,3.5c0,1.2,0.2,2.4,0.7,3.5c0.5,1.1,1.1,2.1,2,3
			c0.9,0.9,1.9,1.5,3,2c2.3,0.9,4.8,0.9,7.1,0c1.1-0.5,2.1-1.1,3-2c0.9-0.9,1.5-1.9,2-3c0.5-1.1,0.7-2.3,0.7-3.5
			c0-1.2-0.2-2.4-0.7-3.5c-0.5-1.1-1.1-2.1-2-3s-1.9-1.5-3-2C65.5,36.2,64.3,36,63.1,36z"/>
	</g>
</g>
</svg>
