<?xml version="1.0" encoding="utf-8"?>
<!-- Generator: Adobe Illustrator 22.1.0, SVG Export Plug-In . SVG Version: 6.00 Build 0)  -->
<svg version="1.1" id="Capa_1" xmlns="http://www.w3.org/2000/svg" xmlns:xlink="http://www.w3.org/1999/xlink" x="0px" y="0px"
	 viewBox="0 0 94.9 54.5" style="enable-background:new 0 0 94.9 54.5;" xml:space="preserve">
<style type="text/css">
	.st0{fill:#94CC5A;}
	.st1{fill:#FFD529;}
	.st2{fill:none;stroke:#95CD58;stroke-width:5;}
	.st3{fill:#95CD58;}
	.st4{fill:#FFCE00;}
	.st5{fill:#95C35B;}
</style>
<g>
	<path class="st4" d="M69,2.7c-3.7,0-7.1,0.8-10.3,2.1V4.1c0-2.3-1.8-4.1-4.1-4.1H11C8.7,0,6.9,1.8,6.9,4.1v9c0,2.3,1.8,4.1,4.1,4.1
		h34.8c-0.2,0.5-0.5,1-0.7,1.5h-41c-2.3,0-4.1,1.8-4.1,4.1v9c0,2.3,1.8,4.1,4.1,4.1h40.1c0.1,0.5,0.3,0.9,0.4,1.4H11
		c-2.3,0-4.1,1.8-4.1,4.1v9c0,2.3,1.8,4.1,4.1,4.1h43.6c1.6,0,3-1,3.7-2.3c3.3,1.5,6.9,2.3,10.7,2.3c14.3,0,25.9-11.6,25.9-25.9
		S83.3,2.7,69,2.7z M55.7,4.1v2.3c-2,1.2-3.9,2.7-5.5,4.4V3h4.4C55.2,3,55.7,3.5,55.7,4.1z M34.3,3h12.9v11.2H34.3V3z M31.3,14.2
		H18.4V3h12.9V14.2z M9.9,13.1v-9C9.9,3.5,10.4,3,11,3h4.4v11.2H11C10.4,14.2,9.9,13.7,9.9,13.1z M27.6,21.7h12.9v11.2H27.6V21.7z
		 M24.6,32.9H11.7V21.7h12.9V32.9z M43.6,21.7h0.5c-0.2,0.7-0.3,1.4-0.5,2V21.7z M3,31.8v-9c0-0.6,0.5-1.1,1.1-1.1h4.6v11.2H4.1
		C3.5,32.9,3,32.4,3,31.8z M47.4,42.9h-0.2v8.7H34.3V40.3h11.6C46.4,41.2,46.9,42.1,47.4,42.9z M31.3,51.5H18.4V40.3h12.9V51.5z
		 M9.9,50.4v-9c0-0.6,0.5-1.1,1.1-1.1h4.4v11.2H11C10.4,51.5,9.9,51,9.9,50.4z M54.6,51.5h-4.4v-5.1c1.6,1.7,3.4,3.2,5.4,4.4
		C55.5,51.2,55.1,51.5,54.6,51.5z M69,51.5c-12.6,0-22.9-10.3-22.9-22.9S56.4,5.7,69,5.7S91.9,16,91.9,28.6S81.7,51.5,69,51.5z"/>
	<path class="st4" d="M69,11.1c-9.7,0-17.5,7.9-17.5,17.5S59.4,46.2,69,46.2s17.5-7.9,17.5-17.5S78.7,11.1,69,11.1z M69,43.2
		c-8,0-14.5-6.5-14.5-14.5S61,14.1,69,14.1s14.5,6.5,14.5,14.5S77,43.2,69,43.2z"/>
	<polygon class="st4" points="66.9,24.2 67.8,23.5 67.8,36.8 70.8,36.8 70.8,17.4 65.1,21.8 	"/>
</g>
</svg>
