<?xml version="1.0" encoding="utf-8"?>
<!-- Generator: Adobe Illustrator 22.1.0, SVG Export Plug-In . SVG Version: 6.00 Build 0)  -->
<svg version="1.1" id="Capa_1" xmlns="http://www.w3.org/2000/svg" xmlns:xlink="http://www.w3.org/1999/xlink" x="0px" y="0px"
	 viewBox="0 0 62.6 62.6" style="enable-background:new 0 0 62.6 62.6;" xml:space="preserve">
<style type="text/css">
	.st0{fill:#94CC5A;}
	.st1{fill:#FFD529;}
	.st2{fill:none;stroke:#95CD58;stroke-width:5;}
	.st3{fill:#95CD58;}
	.st4{fill:#FFCE00;}
	.st5{fill:#95C35B;}
	.st6{fill:#FFFFFF;}
</style>
<path class="st6" d="M48,0H14.6C6.6,0,0,6.6,0,14.6V48c0,8.1,6.6,14.6,14.6,14.6H48c8.1,0,14.6-6.6,14.6-14.6V14.6
	C62.6,6.6,56.1,0,48,0z M59.6,48c0,6.4-5.2,11.6-11.6,11.6H32.4V36.9H44c0.4-2.9,0.7-5.7,1.1-8.5H32.4c0-1.4,0-2.7,0-4
	c0-2.7,1.8-4.5,4.5-4.5h7.7c0.2,0,0.4,0,0.6,0v-8.4c-0.2,0-0.3,0-0.4,0c-2.6,0-5.2,0-7.8,0c-2.9,0-5.5,0.8-7.9,2.5
	c-2.7,2-4.4,4.6-4.9,7.9c-0.3,1.9-0.2,3.9-0.3,5.9c0,0.2,0,0.4,0,0.7h-6.4v8.5h6.3c0,6.4-0.2,17.7-0.3,22.7h-8.9
	C8.2,59.6,3,54.4,3,48V14.6C3,8.2,8.2,3,14.6,3H48c6.4,0,11.6,5.2,11.6,11.6V48z"/>
</svg>
