<?xml version="1.0" encoding="utf-8"?>
<!-- Generator: Adobe Illustrator 22.1.0, SVG Export Plug-In . SVG Version: 6.00 Build 0)  -->
<svg version="1.1" id="Capa_1" xmlns="http://www.w3.org/2000/svg" xmlns:xlink="http://www.w3.org/1999/xlink" x="0px" y="0px"
	 viewBox="0 0 404.1 83" style="enable-background:new 0 0 404.1 83;" xml:space="preserve">
<style type="text/css">
	.st0{fill:#94CC5A;}
	.st1{fill:#FFD529;}
	.st2{fill:none;stroke:#95CD58;stroke-width:5;}
	.st3{fill:#95CD58;}
	.st4{fill:#FFCE00;}
	.st5{fill:#95C35B;}
	.st6{fill:#FFFFFF;}
</style>
<g>
	<g>
		<path class="st4" d="M87.1,58.3H74v-31h13.1V58.3z M76,56.3h9.1v-27H76V56.3z"/>
	</g>
	<g>
		<path class="st4" d="M120.5,58.3h-13.5l-4.6-9.7v9.7H89.3v-31h13.5l4.6,9.7v-9.7h13.1V58.3z M108.3,56.3h10.2v-27h-9.1v12.1
			l-1.9,0.4l-6-12.5H91.3v27h9.1V44.2l1.9-0.4L108.3,56.3z"/>
	</g>
	<g>
		<path class="st4" d="M135.4,59c-8,0-13.5-4.2-13.7-4.3l-0.6-0.5l3.8-9.5l1,0.8c3.2,2.3,8.1,2.9,8.2,2.9c1.5,0.2,2.3,0.2,2.8,0.2
			c-0.5-0.1-1.1-0.3-1.7-0.4c-0.7-0.1-1.5-0.3-2.5-0.5C125,45.9,122,43.1,122,37.4c0-6.7,6-10.8,15.6-10.8c3,0,7.5,0.8,11,2.9
			l0.7,0.4l-3.6,9.3c2.9,1.5,5.5,4.1,5.5,8.6C151.1,53.4,146.3,59,135.4,59z M123.5,53.5c1.6,1,6.1,3.5,11.9,3.5
			c8.3,0,13.7-3.6,13.7-9.1c0-6.4-6.5-8.1-11.3-8.8l-0.7-0.1c-2.3-0.4-4-0.6-4-2.2c0-0.6,0.2-1.1,0.6-1.4c0.7-0.6,1.8-0.8,3.9-0.7
			c3.3,0.2,5.7,1.1,7.1,1.9l2.2-5.6c-3-1.6-6.7-2.2-9.2-2.2c-8.5,0-13.6,3.3-13.6,8.8c0,4,1.4,6.5,9.1,8.2c0.9,0.2,1.7,0.4,2.4,0.5
			c2.4,0.5,3.8,0.8,3.8,2.3c0,0.7-0.3,1.2-0.6,1.4c-0.8,0.7-2.1,0.8-4.9,0.5c-0.2,0-4.5-0.5-8-2.6L123.5,53.5z M135.5,36.6
			c0.5,0.1,1.2,0.2,1.9,0.3l0.7,0.1c1.3,0.2,3.9,0.6,6.3,1.6c-0.7-0.5-3.1-1.9-7-2.1C136.4,36.5,135.8,36.6,135.5,36.6z"/>
	</g>
	<g>
		<path class="st4" d="M168.6,59c-10.2,0-18.1-7.1-18.1-16.2s8-16.2,18.1-16.2c3.9,0,7.6,1.3,10.6,3.7l0.5,0.4l-3.5,11.4l-1.2-1.5
			c-1.1-1.3-2.8-3.1-5.7-3.1c-3.1,0-5.7,2.3-5.7,5.2c0,2.9,2.5,5.2,5.7,5.2c2.1,0,4.1-1,5.7-3.1l1.2-1.4l3.5,11.4l-0.5,0.4
			C176.2,57.7,172.5,59,168.6,59z M168.6,28.7c-9,0-16.1,6.2-16.1,14.2S159.6,57,168.6,57c3.2,0,6.3-1,8.8-2.8l-2.1-6.7
			c-1.8,1.7-3.8,2.5-6.1,2.5c-4.3,0-7.7-3.2-7.7-7.2c0-4,3.5-7.2,7.7-7.2c2.9,0,4.9,1.3,6.1,2.5l2.1-6.6
			C174.9,29.6,171.9,28.7,168.6,28.7z"/>
	</g>
	<g>
		<path class="st4" d="M212.6,58.3h-15.1l-4-6v6h-13.1v-31h18.4c6.3,0,10.7,4.7,10.7,11.3c0,4.1-1.7,7.5-4.7,9.5L212.6,58.3z
			 M198.6,56.3h10l-6.7-8.7l1.1-0.6c2.9-1.5,4.6-4.6,4.6-8.4c0-4.7-2.7-9.3-8.7-9.3h-16.4v27h9.1V45.8L198.6,56.3z M194.6,43.1h-3.1
			v-8.2h3.1c1.9,0,3.8,1.3,3.8,4.1C198.4,41.5,196.9,43.1,194.6,43.1z M193.5,41.1h1.1c1.2,0,1.8-0.7,1.8-2.1c0-1.4-0.6-2.1-1.8-2.1
			h-1.1V41.1z"/>
	</g>
	<g>
		<path class="st4" d="M225.5,58.3h-13.1v-31h13.1V58.3z M214.4,56.3h9.1v-27h-9.1V56.3z M220,26.6h-8.3L217,17h13.6L220,26.6z
			 M215.1,24.6h4.2l6.1-5.6h-7.3L215.1,24.6z"/>
	</g>
	<g>
		<path class="st4" d="M245.8,58.3h-18.1v-31h16.7c6.8,0,11,3.4,11,9c0,2-0.8,4-2.2,5.6c2.3,1.7,3.6,4,3.6,6.7
			C256.8,54.4,252.4,58.3,245.8,58.3z M229.7,56.3h16.1c5.5,0,9-3,9-7.7c0-3.1-2.3-4.8-3.6-5.6l-1.2-0.7l1-0.9
			c1.6-1.5,2.4-3.3,2.4-5.1c0-4.4-3.3-7-9-7h-14.7V56.3z M241.4,50.7h-2.6v-6.1h2.6c2.6,0,4.3,1.2,4.3,3.1
			C245.7,49.5,244.1,50.7,241.4,50.7z M240.8,48.7h0.6c0.4,0,2.3-0.1,2.3-1.1c0-1-1.9-1.1-2.3-1.1h-0.6V48.7z M241.1,41.1h-2.3v-6.1
			h2.3c1.9,0,3.2,1.2,3.2,3.1C244.3,39.8,243,41.1,241.1,41.1z M240.8,39.1h0.3c1.2,0,1.2-0.8,1.2-1.1c0-0.3,0-1.1-1.2-1.1h-0.3
			V39.1z"/>
	</g>
	<g>
		<path class="st4" d="M279.8,58.3h-22.2v-31h22.2v10.3h-9v0.8h7v8.9h-7V48h9V58.3z M259.6,56.3h18.2V50h-9v-4.8h7v-4.9h-7v-4.8h9
			v-6.3h-18.2V56.3z"/>
	</g>
	<g>
		<path class="st4" d="M299.9,58.3h-13.1V37.6h-7V27.3h27v10.3h-7V58.3z M288.8,56.3h9.1V35.6h7v-6.3h-23v6.3h7V56.3z"/>
	</g>
	<g>
		<path class="st4" d="M329.8,58.3h-22.2v-31h22.2v10.3h-9v0.8h7v8.9h-7V48h9V58.3z M309.7,56.3h18.2V50h-9v-4.8h7v-4.9h-7v-4.8h9
			v-6.3h-18.2V56.3z"/>
	</g>
	<g>
		<path class="st4" d="M404.1,83H0V0h404.1V83z M3,80h398.1V3H3V80z"/>
	</g>
</g>
</svg>
