<?xml version="1.0" encoding="utf-8"?>
<!-- Generator: Adobe Illustrator 22.1.0, SVG Export Plug-In . SVG Version: 6.00 Build 0)  -->
<svg version="1.1" id="Capa_1" xmlns="http://www.w3.org/2000/svg" xmlns:xlink="http://www.w3.org/1999/xlink" x="0px" y="0px"
	 viewBox="0 0 37.4 65.7" style="enable-background:new 0 0 37.4 65.7;" xml:space="preserve">
<style type="text/css">
	.st0{fill:#94CC5A;}
	.st1{fill:#FFD529;}
	.st2{fill:none;stroke:#95CD58;stroke-width:5;}
	.st3{fill:#95CD58;}
	.st4{fill:#FFCE00;}
	.st5{fill:#95C35B;}
</style>
<path class="st4" d="M37.2,32.9C35.3,14.7,19.3,0.5,18.7,0C18.1,0.5,2.1,14.7,0.2,32.9C-0.6,40,1.2,46.4,5.3,51
	c3.2,3.5,7.6,5.7,12.2,6v8.7h3v-8.8c4.4-0.4,8.6-2.6,11.7-6C36.2,46.4,38,40,37.2,32.9z M29.9,49c-2.5,2.8-5.9,4.5-9.4,5v-6.7l5.8-7
	l-2.3-1.9l-3.4,4.2v-13h-3v13.6l-4-4.8l-2.3,1.9l6.1,7.4l0.2-0.1V54c-3.7-0.3-7.3-2.1-9.9-5c-3.5-3.9-5-9.5-4.4-15.8
	c1.8-17,15.4-28.9,15.5-29c0.1,0.1,13.7,12,15.5,29C34.9,39.5,33.4,45.1,29.9,49z"/>
</svg>
