<?xml version="1.0" encoding="utf-8"?>
<!-- Generator: Adobe Illustrator 22.1.0, SVG Export Plug-In . SVG Version: 6.00 Build 0)  -->
<svg version="1.1" id="Capa_1" xmlns="http://www.w3.org/2000/svg" xmlns:xlink="http://www.w3.org/1999/xlink" x="0px" y="0px"
	 viewBox="0 0 39.9 56.9" style="enable-background:new 0 0 39.9 56.9;" xml:space="preserve">
<style type="text/css">
	.st0{fill:#94CC5A;}
	.st1{fill:#FFD529;}
	.st2{fill:none;stroke:#95CD58;stroke-width:5;}
	.st3{fill:#95CD58;}
	.st4{fill:#FFCE00;}
	.st5{fill:#95C35B;}
</style>
<g>
	<g>
		<path class="st4" d="M33.9,56.9h-28C2.7,56.9,0,54.3,0,51V5.9C0,2.7,2.7,0,5.9,0h28c3.3,0,5.9,2.7,5.9,5.9V51
			C39.9,54.3,37.2,56.9,33.9,56.9z M5.9,3C4.3,3,3,4.3,3,5.9V51c0,1.6,1.3,2.9,2.9,2.9h28c1.6,0,2.9-1.3,2.9-2.9V5.9
			c0-1.6-1.3-2.9-2.9-2.9H5.9z"/>
	</g>
	<g>
		<path class="st4" d="M30.5,46.9H9.3c-1.9,0-3.5-1.6-3.5-3.5V9.6c0-1.9,1.6-3.5,3.5-3.5h21.2c1.9,0,3.5,1.6,3.5,3.5v33.7
			C34,45.3,32.5,46.9,30.5,46.9z M9.3,9.1c-0.3,0-0.5,0.2-0.5,0.5v33.7c0,0.3,0.2,0.5,0.5,0.5h21.2c0.3,0,0.5-0.2,0.5-0.5V9.6
			c0-0.3-0.2-0.5-0.5-0.5H9.3z"/>
	</g>
	<g>
		<rect x="18.4" y="49.8" class="st4" width="3" height="0.7"/>
	</g>
	<g>
		<path class="st4" d="M33.9,56.9h-28C2.7,56.9,0,54.3,0,51V5.9C0,2.7,2.7,0,5.9,0h28c3.3,0,5.9,2.7,5.9,5.9V51
			C39.9,54.3,37.2,56.9,33.9,56.9z M5.9,3C4.3,3,3,4.3,3,5.9V51c0,1.6,1.3,2.9,2.9,2.9h28c1.6,0,2.9-1.3,2.9-2.9V5.9
			c0-1.6-1.3-2.9-2.9-2.9H5.9z"/>
	</g>
	<g>
		<path class="st4" d="M30.5,46.9H9.3c-1.9,0-3.5-1.6-3.5-3.5V9.6c0-1.9,1.6-3.5,3.5-3.5h21.2c1.9,0,3.5,1.6,3.5,3.5v33.7
			C34,45.3,32.5,46.9,30.5,46.9z M9.3,9.1c-0.3,0-0.5,0.2-0.5,0.5v33.7c0,0.3,0.2,0.5,0.5,0.5h21.2c0.3,0,0.5-0.2,0.5-0.5V9.6
			c0-0.3-0.2-0.5-0.5-0.5H9.3z"/>
	</g>
	<g>
		<rect x="18.4" y="49.8" class="st4" width="3" height="0.7"/>
	</g>
</g>
</svg>
