<?xml version="1.0" encoding="utf-8"?>
<!-- Generator: Adobe Illustrator 22.1.0, SVG Export Plug-In . SVG Version: 6.00 Build 0)  -->
<svg version="1.1" id="Capa_1" xmlns="http://www.w3.org/2000/svg" xmlns:xlink="http://www.w3.org/1999/xlink" x="0px" y="0px"
	 viewBox="0 0 514.7 95.8" style="enable-background:new 0 0 514.7 95.8;" xml:space="preserve">
<style type="text/css">
	.st0{fill:#94CC5A;}
	.st1{fill:#FFD529;}
	.st2{fill:none;stroke:#95CD58;stroke-width:5;}
	.st3{fill:#95CD58;}
	.st4{fill:#FFCE00;}
	.st5{fill:#95C35B;}
</style>
<g>
	<g>
		<path class="st4" d="M257.4,90.1c10.9,0,21.8,0,32.8,0c0.6,0,0.5-0.1,0.5,0.5c0,1.6,0,3.2,0,4.8c0,0.4,0,0.4-0.4,0.4
			c-0.1,0-0.1,0-0.2,0h-65.4c-0.6,0-0.6,0-0.6-0.6c0-1.6,0-3.2,0-4.8c0-0.3,0-0.3,0.3-0.3c0.1,0,0.2,0,0.3,0H257.4z"/>
	</g>
	<g>
		<g>
			<path class="st3" d="M35.8,67C16.1,67,0,52,0,33.5S16.1,0,35.8,0s35.8,15,35.8,33.5S55.6,67,35.8,67z M35.8,3
				C17.7,3,3,16.7,3,33.5S17.7,64,35.8,64s32.8-13.7,32.8-30.5S53.9,3,35.8,3z M35.8,51c-9.9,0-17.9-7.8-17.9-17.5
				c0-9.6,8-17.5,17.9-17.5c9.9,0,17.9,7.8,17.9,17.5C53.7,43.1,45.7,51,35.8,51z M35.8,19c-8.2,0-14.9,6.5-14.9,14.5
				c0,8,6.7,14.5,14.9,14.5c8.2,0,14.9-6.5,14.9-14.5C50.7,25.5,44,19,35.8,19z"/>
		</g>
		<g>
			<path class="st3" d="M109.9,65.5H76.1V1.5h28.4c15.9,0,25.4,6.5,25.4,17.5c0,5-2,9.4-5.3,11.9c5.3,2.5,8.3,7.8,8.3,14.8
				C132.8,57.5,123.6,65.5,109.9,65.5z M79.1,62.5h30.8c12.1,0,19.9-6.6,19.9-16.9c0-3.3-0.9-11.1-9.4-13l-5.2-1.1l5-1.8
				c4-1.4,6.6-5.7,6.6-10.9c0-9.2-8.2-14.5-22.4-14.5H79.1V62.5z M104.4,52.4H94V37.8h10.5c9.4,0,10.5,5.1,10.5,7.3
				S113.9,52.4,104.4,52.4z M97,49.4h7.5c3.4,0,7.5-0.7,7.5-4.3s-4.1-4.3-7.5-4.3H97V49.4z M103,27.7h-9V14.5h9c7.8,0,9,4.1,9,6.6
				C111.9,24.1,110.4,27.7,103,27.7z M97,24.7h6c6,0,6-2.5,6-3.6c0-1,0-3.6-6-3.6h-6V24.7z"/>
		</g>
		<g>
			<path class="st3" d="M151.1,67c-6.2,0-13.1-2.7-16.4-6.3l-0.7-0.8l9.4-16.7l1.4,1.9c1.4,1.9,3.5,2.9,6,2.9c2.2,0,7.5-0.7,7.5-7.2
				V1.5H179v39.3C179,57.4,168.8,67,151.1,67z M137.6,59.4c3,2.7,8.6,4.6,13.4,4.6c16.1,0,25-8.2,25-23.2V4.5h-14.9v36.3
				c0,6.2-4.1,10.2-10.5,10.2c-2.6,0-5-0.9-6.9-2.5L137.6,59.4z"/>
		</g>
		<g>
			<path class="st3" d="M229.8,65.5H185V1.5h44.8v19h-23.9v4.3h19.4v17.5h-19.4v4.3h23.9V65.5z M188,62.5h38.8v-13h-23.9V39.3h19.4
				V27.7h-19.4V17.4h23.9v-13H188V62.5z"/>
		</g>
		<g>
			<path class="st3" d="M311.8,65.5h-20.9V1.5h20.9V65.5z M293.9,62.5h14.9V4.5h-14.9V62.5z"/>
		</g>
		<g>
			<path class="st3" d="M419.2,67c-19.7,0-35.8-15-35.8-33.5S399.5,0,419.2,0C439,0,455,15,455,33.5S439,67,419.2,67z M419.2,3
				c-18.1,0-32.8,13.7-32.8,30.5S401.1,64,419.2,64c18.1,0,32.8-13.7,32.8-30.5S437.3,3,419.2,3z M419.2,51
				c-9.9,0-17.9-7.8-17.9-17.5c0-9.6,8-17.5,17.9-17.5c9.9,0,17.9,7.8,17.9,17.5C437.1,43.1,429.1,51,419.2,51z M419.2,19
				c-8.2,0-14.9,6.5-14.9,14.5c0,8,6.7,14.5,14.9,14.5c8.2,0,14.9-6.5,14.9-14.5C434.1,25.5,427.5,19,419.2,19z"/>
		</g>
		<g>
			<path class="st3" d="M484.9,67c-17.1,0-27.4-9.1-27.9-9.5l-0.8-0.7l7.9-16.6l1.5,1.1c8.8,6.6,19.2,6.7,19.3,6.7
				c6.2,0.2,8.1-0.9,8.6-1.4c0.3-0.2,0.4-0.5,0.4-0.8c0-1.3-3.5-1.9-10.2-3c-17.2-2.7-25.6-9.7-25.6-21.5C458,11,465.5,0,486.6,0
				c0.6,0,15.9,0.1,24.7,7.6l0.9,0.8l-8.5,15.7l-1.4-1.1c0,0-5.6-4.1-17.4-4.1c-4.4,0-6,0.8-6,1.4c0,0.5,0,1.4,6.9,2.2h0
				c9.4,1.2,28.9,3.6,28.9,21.5C514.7,58.4,503.6,67,484.9,67z M459.9,56c2.7,2.1,11.8,8,25,8c17.1,0,26.8-7.2,26.8-19.9
				c0-14-13.6-16.9-26.3-18.5c-5.6-0.7-9.5-1.5-9.5-5.2c0-4.4,6.5-4.4,9-4.4c9.4,0,15.2,2.4,17.7,3.8l5.7-10.6
				C500.2,3.1,486.7,3,486.6,3C470.8,3,461,10,461,21.3c0,10.2,7.3,16.1,23.1,18.5c8.7,1.4,12.7,2,12.7,5.9c0,1.2-0.4,2.2-1.3,3
				c-1.8,1.7-5.3,2.4-10.7,2.2c0,0,0,0,0,0c-0.5,0-10.4-0.1-19.6-6.2L459.9,56z"/>
		</g>
		<g>
			<path class="st3" d="M272.3,65.5h-20.9V20.4H235v-19h53.7v19h-16.4V65.5z M254.4,62.5h14.9V17.4h16.4v-13H238v13h16.4V62.5z"/>
		</g>
		<g>
			<path class="st3" d="M361.3,65.5h-19.9L314.8,1.5H339l12.4,33.7l12.4-33.7h24.2L361.3,65.5z M343.4,62.5h15.9l24.1-58.1h-17.6
				l-14.5,39.4L336.9,4.5h-17.6L343.4,62.5z"/>
		</g>
	</g>
</g>
</svg>
