<?xml version="1.0" encoding="utf-8"?>
<!-- Generator: Adobe Illustrator 22.1.0, SVG Export Plug-In . SVG Version: 6.00 Build 0)  -->
<svg version="1.1" id="Capa_1" xmlns="http://www.w3.org/2000/svg" xmlns:xlink="http://www.w3.org/1999/xlink" x="0px" y="0px"
	 viewBox="0 0 441.4 238.7" style="enable-background:new 0 0 441.4 238.7;" xml:space="preserve">
<style type="text/css">
	.st0{fill:#94CC5A;}
	.st1{fill:#FFD529;}
	.st2{fill:none;stroke:#95CD58;stroke-width:5;}
	.st3{fill:#95CD58;}
	.st4{fill:#FFCE00;}
	.st5{fill:#95C35B;}
</style>
<g>
	<g>
		<path d="M24.2,100.7C2.4,100.7,0,87.5,0,81.8c0-7.3,3.7-10.6,9.3-15.7c2.4-2.1,6-5.4,6.1-10.5l0-1.5h7.4c-5-0.7-8.9-5-8.9-10.1
			c0-5.6,4.6-10.2,10.3-10.2S34.5,38.3,34.5,44c0,5.2-3.9,9.5-8.9,10.1h7.4v1.5c0,7.9-2.8,12.4-5.2,14.9c-1,1-2,1.9-2.8,2.7
			c-2.5,2.4-3.7,3.6-3.7,5c0,1,0,4,6.7,4c3.3,0,7.9-1.1,10.8-4l1.5-1.5l7.8,15.7l-0.9,0.8C41.2,98.2,33.7,100.7,24.2,100.7z
			 M18.3,57.1c-0.7,5.6-4.6,9.1-7,11.3C5.6,73.5,3,76,3,81.8c0,6,2.8,15.9,21.2,15.9c8.2,0,14.8-2,20.1-6.2l-4.9-9.9
			c-3.5,2.6-8,3.5-11.4,3.5c-8.7,0-9.7-4.9-9.7-7c0-2.7,2-4.6,4.7-7.1c0.8-0.8,1.7-1.6,2.7-2.6c2.6-2.6,4-6.5,4.3-11.3H18.3z
			 M24.2,36.8c-4,0-7.3,3.2-7.3,7.2c0,4,3.3,7.2,7.3,7.2s7.3-3.2,7.3-7.2C31.5,40,28.3,36.8,24.2,36.8z"/>
	</g>
	<g>
		<path d="M85.8,86.2c-19.4,0-35.2-15-35.2-33.5c0-18.5,15.8-33.5,35.2-33.5c19.4,0,35.2,15,35.2,33.5c0,7.5-2.6,14.7-7.5,20.6
			l10.9,11.5h-21.8l-1.5-1.9C96.4,85,91.1,86.2,85.8,86.2z M85.8,22.2c-17.8,0-32.2,13.7-32.2,30.5s14.5,30.5,32.2,30.5
			c5.2,0,10.5-1.2,15.2-3.6l1.1-0.5l2,2.7h13.4l-8-8.4l0.9-1c4.9-5.5,7.6-12.5,7.6-19.6C118,35.9,103.6,22.2,85.8,22.2z M85.8,70.2
			c-9.7,0-17.6-7.8-17.6-17.5s7.9-17.5,17.6-17.5c9.7,0,17.6,7.8,17.6,17.5c0,3.1-0.8,6.1-2.4,8.8l-1,1.7L96.9,60h-9.5l6.4,8.4
			l-1.9,0.7C89.9,69.8,87.9,70.2,85.8,70.2z M85.8,38.2c-8.1,0-14.6,6.5-14.6,14.5s6.6,14.5,14.6,14.5c1,0,2.1-0.1,3.1-0.3L81.3,57
			h16.9l1.2,1.2c0.7-1.8,1.1-3.6,1.1-5.5C100.4,44.7,93.9,38.2,85.8,38.2z"/>
	</g>
	<g>
		<path d="M154,86.2c-18.4,0-30.8-11.7-30.8-29.1V20.7h22.1v36.6c0,6.8,4.5,9.9,8.8,9.9s8.8-3.1,8.8-9.9V20.7h22.1v36.4
			C184.8,74.5,172.4,86.2,154,86.2z M126.2,23.7v33.4c0,15.9,10.9,26.1,27.8,26.1s27.8-10.3,27.8-26.1V23.7h-16.1v33.6
			c0,8.5-5.9,12.9-11.8,12.9s-11.8-4.4-11.8-12.9V23.7H126.2z"/>
	</g>
	<g>
		<path d="M211.2,84.7h-20.6V20.7h20.6V84.7z M193.6,81.7h14.6V23.7h-14.6V81.7z"/>
	</g>
	<g>
		<path d="M262.5,84.7h-44V20.7h44v19h-23.5v4.3h19.1v17.5h-19.1v4.3h23.5V84.7z M221.5,81.7h38v-13h-23.5V58.5h19.1V46.9h-19.1
			V36.7h23.5v-13h-38V81.7z M241.8,17.9h-15l10.6-17.5h22.1L241.8,17.9z M232.2,14.9h8.5l11.6-11.5h-13.1L232.2,14.9z"/>
	</g>
	<g>
		<path d="M330,84.7h-19.9l-21.2-30.2v30.2h-20.6V20.7h19.9l21.2,30.2V20.7H330V84.7z M311.7,81.7H327V23.7h-14.6v36.7l-25.7-36.7
			h-15.3v58.1h14.6V45L311.7,81.7z"/>
	</g>
	<g>
		<path d="M381.3,84.7h-44V20.7h44v19h-23.5v4.3h19.1v17.5h-19.1v4.3h23.5V84.7z M340.2,81.7h38v-13h-23.5V58.5h19.1V46.9h-19.1
			V36.7h23.5v-13h-38V81.7z"/>
	</g>
	<g>
		<path d="M412,86.2c-16.8,0-27-9.1-27.4-9.5l-0.8-0.7l7.8-16.6l1.5,1.1c8.7,6.6,18.9,6.7,19,6.7c6.1,0.2,7.9-0.9,8.4-1.4
			c0.3-0.3,0.4-0.5,0.4-0.9c0-1.3-3.2-1.9-10-3c-16.9-2.7-25.2-9.7-25.2-21.5c0-10.3,7.4-21.3,28.1-21.3c0.6,0,15.6,0.1,24.3,7.6
			l0.9,0.8l-8.4,15.7l-1.4-1.1c0,0-5.5-4.1-17-4.1c-3.5,0-5.8,0.6-5.8,1.4c0,0.5,0,1.4,6.8,2.2c9.2,1.2,28.4,3.6,28.4,21.5
			C441.4,77.6,430.4,86.2,412,86.2z M387.5,75.2c2.7,2.1,11.6,8,24.5,8c16.7,0,26.4-7.2,26.4-19.9c0-14-13.3-16.9-25.8-18.5
			c-5.5-0.7-9.4-1.5-9.4-5.2c0-4.4,6.4-4.4,8.8-4.4c9.2,0,14.9,2.4,17.4,3.7l5.6-10.6c-8-6.1-21.2-6.2-21.4-6.2
			c-15.5,0-25.1,7-25.1,18.3c0,10.2,7.2,16.1,22.6,18.5c8.6,1.4,12.5,2,12.5,5.9c0,1.2-0.4,2.2-1.3,3c-1.7,1.7-5.2,2.4-10.5,2.2
			c0,0,0,0,0,0c-0.5,0-10.2-0.1-19.2-6.2L387.5,75.2z"/>
	</g>
	<g>
		<path d="M78.9,195.2c-16.8,0-27-9.1-27.4-9.5l-0.8-0.7l7.8-16.6l1.5,1.1c8.6,6.6,18.9,6.7,19,6.7c6.1,0.2,7.9-0.9,8.4-1.4
			c0.3-0.3,0.4-0.5,0.4-0.9c0-1.3-3.2-1.9-10-3c-16.9-2.7-25.2-9.7-25.2-21.5c0-10.3,7.4-21.3,28.1-21.3c0.6,0,15.6,0.1,24.3,7.6
			l0.9,0.8l-8.4,15.7l-1.4-1.1c0,0-5.5-4.1-17-4.1c-3.5,0-5.8,0.6-5.8,1.4c0,0.5,0,1.4,6.8,2.2c9.2,1.2,28.4,3.6,28.4,21.5
			C108.2,186.7,97.2,195.2,78.9,195.2z M54.3,184.2c2.7,2.1,11.6,8,24.5,8c16.7,0,26.4-7.2,26.4-19.9c0-14-13.3-16.9-25.8-18.5
			c-5.5-0.7-9.4-1.5-9.4-5.2c0-4.4,6.4-4.4,8.8-4.4c9.2,0,14.9,2.4,17.4,3.7l5.6-10.6c-8-6.1-21.2-6.2-21.4-6.2
			c-15.5,0-25.1,7-25.1,18.3c0,10.2,7.2,16.1,22.6,18.5c8.6,1.4,12.5,2,12.5,5.9c0,1.2-0.4,2.2-1.3,3c-1.7,1.7-5.2,2.4-10.5,2.2
			c0,0,0,0,0,0c-0.5,0-10.2-0.1-19.2-6.2L54.3,184.2z"/>
	</g>
	<g>
		<path d="M144.8,195.2c-19.4,0-35.2-15-35.2-33.5c0-18.5,15.8-33.5,35.2-33.5c19.4,0,35.2,15,35.2,33.5
			C180.1,180.2,164.3,195.2,144.8,195.2z M144.8,131.3c-17.8,0-32.2,13.7-32.2,30.5s14.5,30.5,32.2,30.5c17.8,0,32.2-13.7,32.2-30.5
			S162.6,131.3,144.8,131.3z M144.8,179.2c-9.7,0-17.6-7.8-17.6-17.5s7.9-17.5,17.6-17.5c9.7,0,17.6,7.8,17.6,17.5
			S154.6,179.2,144.8,179.2z M144.8,147.3c-8.1,0-14.6,6.5-14.6,14.5s6.6,14.5,14.6,14.5c8.1,0,14.6-6.5,14.6-14.5
			S152.9,147.3,144.8,147.3z"/>
	</g>
	<g>
		<path d="M260.8,193.8h-20.6l-2.4-26l-8.3,26h-16.8l-8.3-26l-2.4,26h-20.6l6.2-64.1h20l13.6,33.8l13.6-33.8h20L260.8,193.8z
			 M243,190.8h14.6l-5.6-58.1h-15.2l-15.7,38.9l-15.7-38.9h-15.2l-5.6,58.1h14.6l3.5-38l12.2,38h12.5l12.2-38L243,190.8z"/>
	</g>
	<g>
		<path d="M297.3,195.2c-19.4,0-35.2-15-35.2-33.5c0-18.5,15.8-33.5,35.2-33.5s35.2,15,35.2,33.5
			C332.5,180.2,316.7,195.2,297.3,195.2z M297.3,131.3c-17.8,0-32.2,13.7-32.2,30.5s14.5,30.5,32.2,30.5s32.2-13.7,32.2-30.5
			S315.1,131.3,297.3,131.3z M297.3,179.2c-9.7,0-17.6-7.8-17.6-17.5s7.9-17.5,17.6-17.5c9.7,0,17.6,7.8,17.6,17.5
			S307,179.2,297.3,179.2z M297.3,147.3c-8.1,0-14.6,6.5-14.6,14.5s6.6,14.5,14.6,14.5c8.1,0,14.6-6.5,14.6-14.5
			S305.4,147.3,297.3,147.3z"/>
	</g>
	<g>
		<path d="M360.4,195.2c-16.8,0-27-9.1-27.4-9.5l-0.8-0.7l7.8-16.6l1.5,1.1c8.7,6.6,18.9,6.7,19,6.7c6.1,0.2,7.9-0.9,8.4-1.4
			c0.3-0.3,0.4-0.5,0.4-0.9c0-1.3-3.2-1.9-10-3c-16.9-2.7-25.2-9.7-25.2-21.5c0-10.3,7.4-21.3,28.1-21.3c0.6,0,15.6,0.1,24.3,7.6
			l0.9,0.8l-8.4,15.7l-1.4-1.1c0,0-5.5-4.1-17-4.1c-3.5,0-5.8,0.6-5.8,1.4c0,0.5,0,1.4,6.8,2.2c9.2,1.2,28.4,3.6,28.4,21.5
			C389.7,186.7,378.7,195.2,360.4,195.2z M335.8,184.2c2.7,2.1,11.6,8,24.5,8c16.7,0,26.4-7.2,26.4-19.9c0-14-13.3-16.9-25.8-18.5
			c-5.5-0.7-9.4-1.5-9.4-5.2c0-4.4,6.4-4.4,8.8-4.4c9.2,0,14.9,2.4,17.4,3.7l5.6-10.6c-8-6.1-21.2-6.2-21.4-6.2
			c-15.5,0-25.1,7-25.1,18.3c0,10.2,7.2,16.1,22.6,18.5c8.6,1.4,12.5,2,12.5,5.9c0,1.2-0.4,2.2-1.3,3c-1.7,1.7-5.2,2.4-10.5,2.2
			c0,0,0,0,0,0c-0.5,0-10.2-0.1-19.2-6.2L335.8,184.2z"/>
	</g>
	<g>
		<path d="M416.1,195.2c-5.7,0-10.3-4.6-10.3-10.2c0-5.2,3.9-9.5,8.9-10.1h-7.4v-1.5c0-7.9,2.8-12.4,5.2-14.9c1-1,2-1.9,2.8-2.7
			c2.5-2.4,3.7-3.6,3.7-5c0-1,0-4-6.7-4c-3.3,0-7.9,1.1-10.8,4l-1.5,1.5l-7.8-15.7l0.9-0.8c6-5.1,13.5-7.6,23-7.6
			c21.9,0,24.2,13.3,24.2,18.9c0,7.3-3.7,10.6-9.3,15.7c-2.4,2.1-6,5.3-6.1,10.5l0,1.5h-7.4c5,0.7,8.9,5,8.9,10.1
			C426.4,190.6,421.7,195.2,416.1,195.2z M416.1,177.8c-4,0-7.3,3.2-7.3,7.2c0,4,3.3,7.2,7.3,7.2s7.3-3.2,7.3-7.2
			C423.4,181,420.1,177.8,416.1,177.8z M410.3,171.9H422c0.7-5.6,4.6-9.1,7-11.3c5.7-5.2,8.3-7.7,8.3-13.4c0-6-2.8-15.9-21.2-15.9
			c-8.2,0-14.8,2-20.1,6.2l4.9,9.9c3.5-2.6,8-3.6,11.4-3.6c8.7,0,9.7,4.9,9.7,7c0,2.7-2,4.6-4.7,7.1c-0.8,0.8-1.7,1.6-2.7,2.6
			C412.8,162.5,410.6,165.9,410.3,171.9z"/>
	</g>
</g>
<g>
	<path d="M220.7,233.3c10.9,0,21.8,0,32.8,0c0.6,0,0.5-0.1,0.5,0.5c0,1.6,0,3.2,0,4.8c0,0.4,0,0.4-0.4,0.4c-0.1,0-0.1,0-0.2,0
		c-21.8,0-43.6,0-65.4,0c-0.6,0-0.6,0-0.6-0.6c0-1.6,0-3.2,0-4.8c0-0.3,0-0.3,0.3-0.3c0.1,0,0.2,0,0.3,0
		C198.9,233.3,209.8,233.3,220.7,233.3z"/>
</g>
</svg>
