<?xml version="1.0" encoding="utf-8"?>
<!-- Generator: Adobe Illustrator 22.1.0, SVG Export Plug-In . SVG Version: 6.00 Build 0)  -->
<svg version="1.1" id="Capa_1" xmlns="http://www.w3.org/2000/svg" xmlns:xlink="http://www.w3.org/1999/xlink" x="0px" y="0px"
	 viewBox="0 0 62.6 61.8" style="enable-background:new 0 0 62.6 61.8;" xml:space="preserve">
<style type="text/css">
	.st0{fill:#94CC5A;}
	.st1{fill:#FFD529;}
	.st2{fill:none;stroke:#95CD58;stroke-width:5;}
	.st3{fill:#95CD58;}
	.st4{fill:#FFCE00;}
	.st5{fill:#95C35B;}
</style>
<g>
	<path class="st4" d="M25.8,3.7c-0.3-0.6-1-0.9-1.6-0.7c-8,3.4-11.8,8.8-13.6,12.8c-1.2,2.6-1.6,5-1.8,6.4l-7.1-1.9
		c-0.4-0.1-0.9,0-1.2,0.3s-0.4,0.8-0.3,1.2l5.7,16.9c0.1,0.4,0.5,0.7,0.9,0.8c0.1,0,0.2,0,0.3,0c0.3,0,0.6-0.1,0.8-0.3l13.4-11.8
		c0.3-0.3,0.5-0.8,0.4-1.2c-0.1-0.4-0.4-0.8-0.9-0.9l-5.6-1.5c-0.7-0.2-1.3,0.2-1.5,0.9c-0.2,0.7,0.2,1.3,0.9,1.5l3.4,0.9l-10.3,9
		l-4.4-13L9.5,25c0.4,0.1,0.8,0,1.1-0.2c0.3-0.2,0.5-0.6,0.5-1c0-0.1,0.1-12.7,14-18.5C25.7,5,26,4.3,25.8,3.7"/>
	<path class="st4" d="M58.1,15.6c-1.7-2.3-3.5-3.9-4.6-4.8l5.2-5.2C59,5.3,59.1,4.8,59,4.4c-0.1-0.4-0.5-0.8-0.9-0.9L40.5,0
		c-0.4-0.1-0.8,0-1.1,0.3c-0.3,0.3-0.4,0.7-0.3,1.1L42.6,19c0.1,0.4,0.4,0.8,0.9,0.9c0.4,0.1,0.9,0,1.2-0.3l4.1-4.1
		c0.5-0.5,0.5-1.3,0-1.7c-0.5-0.5-1.3-0.5-1.8,0l-2.5,2.5L41.9,2.8l13.4,2.7l-4.6,4.6c-0.3,0.3-0.4,0.7-0.4,1c0,0.4,0.3,0.7,0.6,0.9
		c0.4,0.3,10.9,6.5,9,21.4c-0.1,0.7,0.4,1.3,1.1,1.4c0.1,0,0.1,0,0.2,0c0.6,0,1.1-0.5,1.2-1.1C63.4,25.2,60.6,19.1,58.1,15.6"/>
	<path class="st4" d="M56.3,46.8c-0.1-0.4-0.4-0.7-0.8-0.9l-16.9-5.7c-0.4-0.1-0.9,0-1.2,0.3s-0.5,0.8-0.3,1.2l1.5,5.6
		c0.2,0.7,0.9,1.1,1.5,0.9c0.7-0.2,1.1-0.9,0.9-1.5L40,43.3l13,4.4L44,58l-1.7-6.3c-0.1-0.4-0.4-0.7-0.7-0.8
		c-0.4-0.1-0.8-0.1-1.1,0.1c-0.1,0.1-11,6.2-23-2.9c-0.5-0.4-1.3-0.3-1.7,0.2c-0.4,0.5-0.3,1.3,0.2,1.7c6.9,5.3,13.5,5.9,17.9,5.4
		c2.9-0.3,5.1-1.1,6.5-1.6l1.9,7.1c0.1,0.4,0.5,0.8,0.9,0.9c0.1,0,0.2,0,0.3,0c0.4,0,0.7-0.2,0.9-0.4l11.8-13.4
		C56.4,47.6,56.5,47.2,56.3,46.8"/>
	<path class="st4" d="M25.8,3.7c-0.3-0.6-1-0.9-1.6-0.7c-8,3.4-11.8,8.8-13.6,12.8c-1.2,2.6-1.6,5-1.8,6.4l-7.1-1.9
		c-0.4-0.1-0.9,0-1.2,0.3s-0.4,0.8-0.3,1.2l5.7,16.9c0.1,0.4,0.5,0.7,0.9,0.8c0.1,0,0.2,0,0.3,0c0.3,0,0.6-0.1,0.8-0.3l13.4-11.8
		c0.3-0.3,0.5-0.8,0.4-1.2c-0.1-0.4-0.4-0.8-0.9-0.9l-5.6-1.5c-0.7-0.2-1.3,0.2-1.5,0.9c-0.2,0.7,0.2,1.3,0.9,1.5l3.4,0.9l-10.3,9
		l-4.4-13L9.5,25c0.4,0.1,0.8,0,1.1-0.2c0.3-0.2,0.5-0.6,0.5-1c0-0.1,0.1-12.7,14-18.5C25.7,5,26,4.3,25.8,3.7"/>
	<path class="st4" d="M58.1,15.6c-1.7-2.3-3.5-3.9-4.6-4.8l5.2-5.2C59,5.3,59.1,4.8,59,4.4c-0.1-0.4-0.5-0.8-0.9-0.9L40.5,0
		c-0.4-0.1-0.8,0-1.1,0.3c-0.3,0.3-0.4,0.7-0.3,1.1L42.6,19c0.1,0.4,0.4,0.8,0.9,0.9c0.4,0.1,0.9,0,1.2-0.3l4.1-4.1
		c0.5-0.5,0.5-1.3,0-1.7c-0.5-0.5-1.3-0.5-1.8,0l-2.5,2.5L41.9,2.8l13.4,2.7l-4.6,4.6c-0.3,0.3-0.4,0.7-0.4,1c0,0.4,0.3,0.7,0.6,0.9
		c0.4,0.3,10.9,6.5,9,21.4c-0.1,0.7,0.4,1.3,1.1,1.4c0.1,0,0.1,0,0.2,0c0.6,0,1.1-0.5,1.2-1.1C63.4,25.2,60.6,19.1,58.1,15.6"/>
	<path class="st4" d="M56.3,46.8c-0.1-0.4-0.4-0.7-0.8-0.9l-16.9-5.7c-0.4-0.1-0.9,0-1.2,0.3s-0.5,0.8-0.3,1.2l1.5,5.6
		c0.2,0.7,0.9,1.1,1.5,0.9c0.7-0.2,1.1-0.9,0.9-1.5L40,43.3l13,4.4L44,58l-1.7-6.3c-0.1-0.4-0.4-0.7-0.7-0.8
		c-0.4-0.1-0.8-0.1-1.1,0.1c-0.1,0.1-11,6.2-23-2.9c-0.5-0.4-1.3-0.3-1.7,0.2c-0.4,0.5-0.3,1.3,0.2,1.7c6.9,5.3,13.5,5.9,17.9,5.4
		c2.9-0.3,5.1-1.1,6.5-1.6l1.9,7.1c0.1,0.4,0.5,0.8,0.9,0.9c0.1,0,0.2,0,0.3,0c0.4,0,0.7-0.2,0.9-0.4l11.8-13.4
		C56.4,47.6,56.5,47.2,56.3,46.8"/>
</g>
</svg>
