<?xml version="1.0" encoding="utf-8"?>
<!-- Generator: Adobe Illustrator 22.1.0, SVG Export Plug-In . SVG Version: 6.00 Build 0)  -->
<svg version="1.1" id="Capa_1" xmlns="http://www.w3.org/2000/svg" xmlns:xlink="http://www.w3.org/1999/xlink" x="0px" y="0px"
	 viewBox="0 0 581 114.1" style="enable-background:new 0 0 581 114.1;" xml:space="preserve">
<style type="text/css">
	.st0{fill:#94CC5A;}
	.st1{fill:#FFD529;}
	.st2{fill:none;stroke:#95CD58;stroke-width:5;}
	.st3{fill:#95CD58;}
	.st4{fill:#FFCE00;}
	.st5{fill:#95C35B;}
</style>
<g>
	<g>
		<path d="M290.5,108.4c10.9,0,21.8,0,32.8,0c0.6,0,0.5-0.1,0.5,0.5c0,1.6,0,3.2,0,4.8c0,0.4,0,0.4-0.4,0.4c-0.1,0-0.1,0-0.2,0
			h-65.4c-0.6,0-0.6,0-0.6-0.6c0-1.6,0-3.2,0-4.8c0-0.3,0-0.3,0.3-0.3c0.1,0,0.2,0,0.3,0H290.5z"/>
	</g>
	<g>
		<g>
			<path d="M28.2,67c-16.8,0-27-9.1-27.4-9.5L0,56.8l7.8-16.6l1.5,1.1c8.6,6.6,18.9,6.7,19,6.7c6.1,0.2,7.9-0.9,8.4-1.4
				c0.3-0.3,0.4-0.5,0.4-0.9c0-1.3-3.2-1.9-10-3C10,40.1,1.8,33.1,1.8,21.3C1.8,11,9.2,0,29.9,0c0.6,0,15.6,0.1,24.3,7.6L55,8.4
				l-8.4,15.7L45.3,23c0,0-5.5-4.1-17-4.1c-3.5,0-5.8,0.6-5.8,1.4c0,0.5,0,1.4,6.8,2.2h0c9.2,1.2,28.4,3.6,28.4,21.5
				C57.6,58.4,46.6,67,28.2,67z M3.7,56c2.7,2.1,11.6,8,24.5,8c16.8,0,26.4-7.2,26.4-19.9c0-14-13.3-16.9-25.8-18.5
				c-5.5-0.7-9.4-1.5-9.4-5.2c0-4.4,6.4-4.4,8.8-4.4c9.2,0,14.9,2.4,17.4,3.7l5.6-10.6C43.3,3.1,30,3,29.9,3C14.4,3,4.8,10,4.8,21.3
				c0,10.2,7.2,16.1,22.6,18.5c8.6,1.4,12.5,2,12.5,5.9c0,1.2-0.4,2.2-1.3,3c-1.7,1.7-5.2,2.4-10.5,2.2c0,0,0,0,0,0
				c-0.5,0-10.2-0.1-19.2-6.2L3.7,56z"/>
		</g>
		<g>
			<path d="M177.8,65.5h-44.1V1.5h20.6v45.1h23.5V65.5z M136.7,62.5h38.1v-13h-23.5V4.5h-14.6V62.5z"/>
		</g>
		<g>
			<path d="M211.5,67c-18.4,0-30.8-11.7-30.8-29.1V1.5h22.1V38c0,6.8,4.5,9.9,8.8,9.9s8.8-3.1,8.8-9.9V1.5h22.1v36.4
				C242.3,55.3,229.9,67,211.5,67z M183.7,4.5v33.4c0,15.9,10.9,26.1,27.8,26.1s27.8-10.3,27.8-26.1V4.5h-16.1V38
				c0,8.5-5.9,12.9-11.8,12.9s-11.8-4.4-11.8-12.9V4.5H183.7z"/>
		</g>
		<g>
			<path d="M281.3,67c-19.9,0-36.1-15-36.1-33.5S261.4,0,281.3,0c8.1,0,16.6,2.9,22.1,7.6l0.8,0.7l-8.1,18l-1.5-1.7
				c-3.2-3.6-7.9-5.7-12.8-5.7c-8.8,0-16,6.5-16,14.5c0,8,7.2,14.5,16,14.5c4.9,0,9.6-2.1,12.8-5.7l1.5-1.7l8.1,17.9l-0.9,0.7
				C297.8,64,289.4,67,281.3,67z M281.3,3c-18.3,0-33.1,13.7-33.1,30.5S263,64,281.3,64c6.9,0,14.3-2.4,19.2-6.3l-5.3-11.8
				c-3.6,3.3-8.4,5.1-13.5,5.1c-10.5,0-19-7.8-19-17.5c0-9.6,8.5-17.5,19-17.5c5,0,9.8,1.8,13.5,5.1l5.3-11.9
				C295.6,5.4,288.2,3,281.3,3z"/>
		</g>
		<g>
			<path d="M328.8,65.5h-20.6V1.5h20.6V65.5z M311.2,62.5h14.6V4.5h-14.6V62.5z"/>
		</g>
		<g>
			<path d="M368.4,67c-19.4,0-35.2-15-35.2-33.5C333.1,15,348.9,0,368.4,0c19.4,0,35.2,15,35.2,33.5C403.6,52,387.8,67,368.4,67z
				 M368.4,3c-17.8,0-32.2,13.7-32.2,30.5c0,16.8,14.5,30.5,32.2,30.5s32.2-13.7,32.2-30.5C400.6,16.7,386.1,3,368.4,3z M368.4,51
				c-9.7,0-17.6-7.8-17.6-17.5c0-9.6,7.9-17.5,17.6-17.5S386,23.8,386,33.5C386,43.1,378.1,51,368.4,51z M368.4,19
				c-8.1,0-14.6,6.5-14.6,14.5c0,8,6.6,14.5,14.6,14.5S383,41.5,383,33.5C383,25.5,376.4,19,368.4,19z"/>
		</g>
		<g>
			<path d="M551.6,67c-16.8,0-27-9.1-27.4-9.5l-0.8-0.7l7.8-16.6l1.5,1.1c8.7,6.6,18.9,6.7,19,6.7c6.1,0.2,7.9-0.9,8.4-1.4
				c0.3-0.3,0.4-0.5,0.4-0.9c0-1.3-3.2-1.9-10-3c-16.9-2.7-25.2-9.7-25.2-21.5C525.2,11,532.6,0,553.3,0c0.6,0,15.6,0.1,24.3,7.6
				l0.9,0.8l-8.4,15.7l-1.4-1.1c0,0-5.5-4.1-17-4.1c-3.5,0-5.8,0.6-5.8,1.4c0,0.5,0,1.4,6.8,2.2h0c9.2,1.2,28.4,3.6,28.4,21.5
				C581,58.4,570,67,551.6,67z M527.1,56c2.7,2.1,11.6,8,24.5,8c16.8,0,26.4-7.2,26.4-19.9c0-14-13.3-16.9-25.8-18.5
				c-5.5-0.7-9.4-1.5-9.4-5.2c0-4.4,6.4-4.4,8.8-4.4c9.2,0,14.9,2.4,17.4,3.7l5.6-10.6c-8-6.1-21.2-6.2-21.4-6.2
				c-15.5,0-25.1,7-25.1,18.3c0,10.2,7.2,16.1,22.6,18.5c8.6,1.4,12.5,2,12.5,5.9c0,1.2-0.4,2.2-1.3,3c-1.7,1.7-5.2,2.4-10.5,2.2
				c0,0,0,0,0,0c-0.5,0-10.2-0.1-19.2-6.2L527.1,56z"/>
		</g>
		<g>
			<path d="M96,67c-19.4,0-35.2-15-35.2-33.5C60.8,15,76.6,0,96,0s35.2,15,35.2,33.5C131.2,52,115.4,67,96,67z M96,3
				C78.3,3,63.8,16.7,63.8,33.5C63.8,50.3,78.3,64,96,64c17.8,0,32.2-13.7,32.2-30.5C128.2,16.7,113.8,3,96,3z M96,51
				c-9.7,0-17.6-7.8-17.6-17.5C78.4,23.8,86.3,16,96,16c9.7,0,17.6,7.8,17.6,17.5C113.7,43.1,105.7,51,96,51z M96,19
				c-8.1,0-14.6,6.5-14.6,14.5C81.4,41.5,88,48,96,48c8.1,0,14.6-6.5,14.6-14.5C110.7,25.5,104.1,19,96,19z"/>
		</g>
		<g>
			<path d="M467.7,65.5h-19.9l-21.2-30.2v30.2h-20.6V1.5H426l21.2,30.2V1.5h20.6V65.5z M449.4,62.5h15.3V4.5h-14.6v36.7L424.4,4.5
				h-15.3v58.1h14.6V25.8L449.4,62.5z"/>
		</g>
		<g>
			<path d="M519,65.5H475V1.5H519v19h-23.5v4.3h19.1v17.5h-19.1v4.3H519V65.5z M478,62.5H516v-13h-23.5V39.3h19.1V27.7h-19.1V17.4
				H516v-13H478V62.5z"/>
		</g>
	</g>
</g>
</svg>
