<?xml version="1.0" encoding="utf-8"?>
<!-- Generator: Adobe Illustrator 22.1.0, SVG Export Plug-In . SVG Version: 6.00 Build 0)  -->
<svg version="1.1" id="Capa_1" xmlns="http://www.w3.org/2000/svg" xmlns:xlink="http://www.w3.org/1999/xlink" x="0px" y="0px"
	 viewBox="0 0 75.5 56" style="enable-background:new 0 0 75.5 56;" xml:space="preserve">
<style type="text/css">
	.st0{fill:#94CC5A;}
	.st1{fill:#FFD529;}
	.st2{fill:none;stroke:#95CD58;stroke-width:5;}
	.st3{fill:#95CD58;}
	.st4{fill:#FFCE00;}
	.st5{fill:#95C35B;}
</style>
<g>
	<path class="st4" d="M10.4,12.7v13.5c0,1.7,1.4,3.2,3.2,3.2h18.6v-2H13.6c-0.6,0-1.2-0.5-1.2-1.2V12.7H10.4z"/>
	<polygon class="st4" points="22.6,19 25.3,20.8 31.1,15 31.1,18.6 33.1,18.6 33.1,11.5 26.1,11.5 26.1,13.5 29.7,13.5 25,18.2 
		22.4,16.5 15.1,23.2 16.4,24.7 	"/>
	<path class="st4" d="M75.2,30.3L60.3,11.7c-0.2-0.3-0.6-0.5-0.9-0.5H49c-0.7,0-1.2,0.5-1.2,1.2s0.5,1.2,1.2,1.2h9.8l14.3,17.8v7.8
		h-0.8c-0.7,0-1.2,0.5-1.2,1.2c0,0.7,0.5,1.2,1.2,1.2h0.8v2.5h-6.3c-1.2-3.5-4.5-6.1-8.5-6.1c-3.9,0-7.3,2.6-8.5,6.1h-4.6V2.4H49
		c0.7,0,1.2-0.5,1.2-1.2S49.7,0,49,0H10C9.6,0,9.2,0.2,9,0.6L0.2,15.9C0.1,16.1,0,16.3,0,16.5v28.9c0,0.7,0.5,1.2,1.2,1.2h2.2
		c0,0.1,0,0.3,0,0.4c0,0.7,0.5,1.2,1.2,1.2s1.2-0.5,1.2-1.2c0-6.2,5.1-11.3,11.3-11.3s11.3,5.1,11.3,11.3c0,0.7,0.5,1.2,1.2,1.2
		c0.7,0,1.2-0.5,1.2-1.2c0-0.1,0-0.3,0-0.4h18.6c0,0.1,0,0.3,0,0.4c0,4.9,4,8.9,8.9,8.9c4.9,0,8.9-4,8.9-8.9c0-0.1,0-0.3,0-0.4h7
		c0.7,0,1.2-0.5,1.2-1.2V31.1C75.5,30.8,75.4,30.5,75.2,30.3z M42.9,44.2H30.6c-1.3-6.2-6.8-10.9-13.4-10.9S5,38,3.7,44.2H2.4V16.8
		l8.3-14.4h32.2V44.2z M58.4,53.6c-3.6,0-6.5-2.9-6.5-6.5c0-3.6,2.9-6.5,6.5-6.5c3.6,0,6.5,2.9,6.5,6.5C64.9,50.7,62,53.6,58.4,53.6
		z"/>
	<path class="st4" d="M49,16.1c-0.7,0-1.2,0.5-1.2,1.2v10.6c0,0.7,0.5,1.2,1.2,1.2h16.5c0.7,0,1.2-0.5,1.2-1.2s-0.5-1.2-1.2-1.2
		H50.2v-9.4C50.2,16.6,49.7,16.1,49,16.1z"/>
	<path class="st4" d="M17.1,38.2c-4.9,0-8.9,4-8.9,8.9c0,4.9,4,8.9,8.9,8.9c4.9,0,8.9-4,8.9-8.9C26.1,42.2,22.1,38.2,17.1,38.2z
		 M17.1,53.6c-3.6,0-6.5-2.9-6.5-6.5c0-3.6,2.9-6.5,6.5-6.5c3.6,0,6.5,2.9,6.5,6.5C23.7,50.7,20.7,53.6,17.1,53.6z"/>
</g>
</svg>
