<?xml version="1.0" encoding="utf-8"?>
<!-- Generator: Adobe Illustrator 22.1.0, SVG Export Plug-In . SVG Version: 6.00 Build 0)  -->
<svg version="1.1" id="Capa_1" xmlns="http://www.w3.org/2000/svg" xmlns:xlink="http://www.w3.org/1999/xlink" x="0px" y="0px"
	 viewBox="0 0 90.9 66" style="enable-background:new 0 0 90.9 66;" xml:space="preserve">
<style type="text/css">
	.st0{fill:#94CC5A;}
	.st1{fill:#FFD529;}
	.st2{fill:none;stroke:#95CD58;stroke-width:5;}
	.st3{fill:#95CD58;}
	.st4{fill:#FFCE00;}
	.st5{fill:#95C35B;}
</style>
<g>
	<path class="st4" d="M13.2,49.9c-3.2,0-5.9,2.6-5.9,5.9c0,3.2,2.6,5.9,5.9,5.9c3.2,0,5.9-2.6,5.9-5.9
		C19.1,52.5,16.4,49.9,13.2,49.9 M13.2,58.7c-1.6,0-2.9-1.3-2.9-2.9c0-1.6,1.3-2.9,2.9-2.9c1.6,0,2.9,1.3,2.9,2.9
		C16.1,57.3,14.8,58.7,13.2,58.7"/>
	<path class="st4" d="M71.9,49.9c-3.2,0-5.9,2.6-5.9,5.9c0,3.2,2.6,5.9,5.9,5.9c3.2,0,5.9-2.6,5.9-5.9
		C77.7,52.5,75.1,49.9,71.9,49.9 M71.9,58.7c-1.6,0-2.9-1.3-2.9-2.9c0-1.6,1.3-2.9,2.9-2.9c1.6,0,2.9,1.3,2.9,2.9
		C74.8,57.3,73.5,58.7,71.9,58.7"/>
	<path class="st4" d="M33.7,13.2h-7c-1.6,0-3.1,0.6-4.1,1.8l-0.3,0.3c-1.2,1-1.8,2.6-1.8,4.1v11.4c0,0.9,0.6,1.5,1.5,1.5h11.7
		c0.9,0,1.5-0.6,1.5-1.5V14.7C35.2,13.8,34.6,13.2,33.7,13.2 M32.3,29.3h-8.8v-10c0-0.7,0.3-1.5,0.9-2.1l0.3-0.3
		c0.6-0.6,1.3-0.9,2.1-0.9h5.6V29.3z"/>
	<rect x="29.3" y="35.2" class="st4" width="5.9" height="2.9"/>
	<path class="st4" d="M90.5,7.8l-7.3-7.3c-0.6-0.6-1.5-0.6-2.1,0l-3.4,3.4l-1.9-1.9c-0.3-0.3-0.6-0.4-1-0.4H33.7
		c-0.9,0-1.5,0.6-1.5,1.5v4.4h-4c-3.5,0-6.9,1.3-9.4,3.8l-0.4,0.4c-2.5,2.5-3.8,5.9-3.8,9.4v12.8H4.4c-2.5,0-4.4,1.9-4.4,4.4v14.7
		c0,0.9,0.6,1.5,1.5,1.5h1.6c-0.9,5.6,3.1,10.9,8.7,11.6c4.4,0.6,8.8-1.6,10.7-5.7h40.2c2.3,5.1,8.5,7.3,13.6,4.8
		c2.2-1,3.8-2.8,4.8-4.8h5.4c0.9,0,1.5-0.6,1.5-1.5v-4.4h1.5c0.9,0,1.5-0.6,1.5-1.5V41.1c0-0.9-0.6-1.5-1.5-1.5h-0.9l1.9-1.9
		c0.3-0.3,0.4-0.6,0.4-1V17.6c0-0.4-0.1-0.7-0.4-1l-3.4-3.4l3.4-3.4C91.1,9.2,91.1,8.4,90.5,7.8 M80.1,10.3h-6.7V4.4h0.9L80.1,10.3z
		 M76.3,33.7h2.9v5.9h-2.9V33.7z M73.3,39.6h-2.9v-5.9h2.9V39.6z M67.5,39.6h-2.9v-5.9h2.9V39.6z M61.6,39.6h-2.9v-5.9h2.9V39.6z
		 M55.7,39.6h-2.9v-5.9h2.9V39.6z M49.9,39.6h-2.9v-5.9h2.9V39.6z M44,39.6h-2.9v-5.9H44V39.6z M44,4.4h2.9v5.9H44V4.4z M49.9,4.4
		h2.9v5.9h-2.9V4.4z M55.7,4.4h2.9v5.9h-2.9V4.4z M61.6,4.4h2.9v5.9h-2.9V4.4z M67.5,4.4h2.9v5.9h-2.9V4.4z M35.2,4.4h5.9v5.9h-0.9
		l-2.5-2.5c-0.3-0.3-0.6-0.4-1-0.4h-1.5V4.4z M4.4,36.7h1.5v2.9H2.9v-1.5C2.9,37.3,3.5,36.7,4.4,36.7 M13.2,63.1
		c-4.1,0-7.3-3.2-7.3-7.3c0-4.1,3.2-7.3,7.3-7.3c4.1,0,7.3,3.2,7.3,7.3C20.5,59.8,17.3,63.1,13.2,63.1 M23.3,57.2
		c0.1-1,0.1-1.9,0-2.9h38.4c-0.1,1-0.1,1.9,0,2.9H23.3z M71.9,63.1c-4.1,0-7.3-3.2-7.3-7.3c0-4.1,3.2-7.3,7.3-7.3
		c4.1,0,7.3,3.2,7.3,7.3C79.2,59.8,76,63.1,71.9,63.1 M85.1,57.2H82c0.1-1,0.1-1.9,0-2.9h3.1V57.2z M88,51.3h-6.9
		c-2.3-5.1-8.5-7.3-13.6-4.8c-2.2,1-3.8,2.8-4.8,4.8H22.4c-2.3-5.1-8.5-7.3-13.6-4.8c-2.2,1-3.8,2.8-4.8,4.8h-1v-8.8h4.4
		c0.9,0,1.5-0.6,1.5-1.5v-4.4h7.3c0.9,0,1.5-0.6,1.5-1.5V21c0-2.8,1-5.3,3.1-7.2l0.4-0.4c1.9-1.9,4.5-3.1,7.2-3.1h7.8l2.1,2.1v28.7
		c0,0.9,0.6,1.5,1.5,1.5H88V51.3z M82.1,39.6v-5.9H88v2.3l-3.5,3.5H82.1z M88,30.8H41.1V13.2H83l5,5V30.8z M85.1,11.1l-5.3-5.3
		l2.3-2.3l5.3,5.3L85.1,11.1z"/>
	<path class="st4" d="M13.2,49.9c-3.2,0-5.9,2.6-5.9,5.9c0,3.2,2.6,5.9,5.9,5.9c3.2,0,5.9-2.6,5.9-5.9
		C19.1,52.5,16.4,49.9,13.2,49.9 M13.2,58.7c-1.6,0-2.9-1.3-2.9-2.9c0-1.6,1.3-2.9,2.9-2.9c1.6,0,2.9,1.3,2.9,2.9
		C16.1,57.3,14.8,58.7,13.2,58.7"/>
	<path class="st4" d="M71.9,49.9c-3.2,0-5.9,2.6-5.9,5.9c0,3.2,2.6,5.9,5.9,5.9c3.2,0,5.9-2.6,5.9-5.9
		C77.7,52.5,75.1,49.9,71.9,49.9 M71.9,58.7c-1.6,0-2.9-1.3-2.9-2.9c0-1.6,1.3-2.9,2.9-2.9c1.6,0,2.9,1.3,2.9,2.9
		C74.8,57.3,73.5,58.7,71.9,58.7"/>
	<g>
		<path class="st4" d="M68.8,17.8l-2.9-3.3c-0.3-0.3-0.6-0.5-1-0.5h-2.9c-0.4,0-0.7,0.2-1,0.5L58,17.8l2.1,2.3l2.5-2.8h1.8l2.5,2.8
			L68.8,17.8z"/>
		<path class="st4" d="M72.8,22.2L69.9,19l-2.1,2.3l1.9,2.1L68.3,25h-3.8v3.3h4.4c0.4,0,0.7-0.2,1-0.5l2.9-3.3
			C73.4,23.9,73.4,22.9,72.8,22.2"/>
		<path class="st4" d="M57.1,23.4l1.9-2.1L57,19L54,22.2c-0.6,0.7-0.6,1.6,0,2.3l2.9,3.3c0.3,0.3,0.6,0.5,1,0.5h4.4V25h-3.8
			L57.1,23.4z"/>
	</g>
</g>
</svg>
