<?xml version="1.0" encoding="utf-8"?>
<!-- Generator: Adobe Illustrator 22.1.0, SVG Export Plug-In . SVG Version: 6.00 Build 0)  -->
<svg version="1.1" id="Capa_1" xmlns="http://www.w3.org/2000/svg" xmlns:xlink="http://www.w3.org/1999/xlink" x="0px" y="0px"
	 viewBox="0 0 258.9 321.6" style="enable-background:new 0 0 258.9 321.6;" xml:space="preserve">
<style type="text/css">
	.st0{fill:#94CC5A;}
	.st1{fill:#FFD529;}
	.st2{fill:none;stroke:#95CD58;stroke-width:5;}
	.st3{fill:#95CD58;}
	.st4{fill:#FFCE00;}
	.st5{fill:#95C35B;}
</style>
<g>
	<path class="st5" d="M218.3,5.6c0.4,0,0.9,0,1.3,0c14.2,0,25.9,11.1,26.6,25.4c0.7,14.7-10.6,27.3-25.4,27.9
		c-14.8,0.7-27.3-10.7-27.9-25.4C192.2,18.9,203.6,6.4,218.3,5.6z M219.6,64.6c0.5,0,1.1,0,1.6,0c17.8-0.9,31.5-16.1,30.7-33.9
		C251,13,236-0.8,218,0c-17.8,0.9-31.5,16.1-30.7,33.9C188.2,51.1,202.3,64.6,219.6,64.6z"/>
	<path class="st5" d="M228,171.7c-11.8,0-21.4,9.6-21.4,21.3v4.2c-3.4-4.2-5.4-9.5-5.6-15l-2.4-48.9l31-21.1
		c7.4-5,9.3-15.1,4.3-22.5c-3-4.4-8-7.1-13.4-7.1c-3.2,0-6.4,1-9.1,2.8L197,95.2c1.2-12.8,11.6-23.2,24.8-23.9
		c14.4-0.7,26.8,10.5,27.4,24.9l4,83.4c0.2,5.4-1.2,10.7-4,15.2v-1.9C249.3,181.3,239.7,171.7,228,171.7z M243.7,300.2
		c0,8.7-7.1,15.7-15.7,15.7c-0.3,0-0.7,0-1,0V278c0-1.6-1.2-2.8-2.8-2.8s-2.8,1.2-2.8,2.8v36.4c-5.4-2.5-9.2-8-9.2-14.3V193
		c0-8.7,7.1-15.7,15.7-15.7c8.7,0,15.7,7.1,15.7,15.7L243.7,300.2L243.7,300.2z M162.5,151.2c-1.7,1.2-3.8,1.8-5.9,1.8
		c-3.5,0-6.8-1.7-8.7-4.6c-1.6-2.3-2.1-5.2-1.6-7.9c0.5-2.8,2.1-5.2,4.4-6.8l63.8-43.4c1.7-1.2,3.8-1.8,5.9-1.8
		c3.5,0,6.8,1.7,8.7,4.6c3.3,4.9,2.1,11.4-2.8,14.7L162.5,151.2z M258.8,179.5l-4-83.4C254,78.5,239,65,221.5,65.8
		c-17.5,0.8-31.1,15.8-30.2,33.3L147.4,129c-3.5,2.4-6,6.1-6.8,10.4s0.1,8.6,2.6,12.1c3,4.4,8,7.1,13.4,7.1c3.2,0,6.4-1,9.1-2.8
		l27.5-18.7l2.2,45.5c0.4,8.8,4.5,17.1,11.2,22.7v94.9c0,11.8,9.6,21.3,21.3,21.3s21.3-9.6,21.3-21.3v-96.4
		C255.8,197.5,259.3,188.7,258.8,179.5z"/>
	<path class="st5" d="M224.2,216.9c-1.6,0-2.8,1.2-2.8,2.8v39.5c0,1.6,1.2,2.8,2.8,2.8c1.6,0,2.8-1.2,2.8-2.8v-39.5
		C227,218.2,225.7,216.9,224.2,216.9z"/>
	<path class="st5" d="M127.2,309.6c-7.1,0-12.8-5.8-12.8-12.8c0-7.1,5.8-12.8,12.8-12.8s12.8,5.8,12.8,12.8
		C140.1,303.8,134.3,309.6,127.2,309.6z M25.2,275.8h57.5c1.6,0,2.8-1.2,2.8-2.8s-1.2-2.8-2.8-2.8H24.8l-1.2-20.1h22.9
		c1.6,0,2.8-1.2,2.8-2.8s-1.2-2.8-2.8-2.8H23.2l-5.4-86h115.6l-3.2,51.1H61c-1.6,0-2.8,1.2-2.8,2.8c0,1.6,1.2,2.8,2.8,2.8h68.8
		l-4,63.1c-7.9,0.6-14.5,6.2-16.6,13.7H26.1L25.2,275.8z M135.9,119l-1,15.5c-0.1,0-0.1,0-0.2,0H16.3l-1-15.5H135.9z M8.9,97.2
		h133.4l2.8,16.1H6.1L8.9,97.2z M16.6,140.1h118l-0.8,12.8H17.4L16.6,140.1z M131.4,278.8l10-159.8h6.9c1.6,0,2.8-1.2,2.8-2.8
		c0-0.2,0-0.5-0.1-0.7l-3.7-21.5c-0.2-1.3-1.4-2.3-2.8-2.3H6.5c-1.4,0-2.6,1-2.7,2.3l-3.7,21.7c-0.2,0.8,0.1,1.6,0.7,2.3
		c0.5,0.7,1.3,1,2.1,1h6.9l11,175.9c0.1,1.5,1.3,2.6,2.8,2.6h85.3c0.4,9.8,8.6,17.6,18.5,17.6c10.2,0,18.5-8.3,18.5-18.5
		C145.7,288,139.6,280.7,131.4,278.8z"/>
</g>
</svg>
