<?xml version="1.0" encoding="utf-8"?>
<!-- Generator: Adobe Illustrator 22.1.0, SVG Export Plug-In . SVG Version: 6.00 Build 0)  -->
<svg version="1.1" id="Capa_1" xmlns="http://www.w3.org/2000/svg" xmlns:xlink="http://www.w3.org/1999/xlink" x="0px" y="0px"
	 viewBox="0 0 290.1 290.1" style="enable-background:new 0 0 290.1 290.1;" xml:space="preserve">
<style type="text/css">
	.st0{fill:#94CC5A;}
	.st1{fill:#FFD529;}
	.st2{fill:none;stroke:#95CD58;stroke-width:5;}
	.st3{fill:#95CD58;}
	.st4{fill:#FFCE00;}
	.st5{fill:#95C35B;}
</style>
<g>
	<path class="st5" d="M275.5,280.4h-77.3v-82.2h77.3V280.4z M101.5,198.2h87v82.2h-87V198.2z M14.5,198.2h77.3v82.2H14.5V198.2z
		 M27.8,130.5h6v24.2c0,2.7,2.2,4.8,4.8,4.8h38.7c2.7,0,4.8-2.2,4.8-4.8v-24.2h6l8.2,27.4l-3.4,11.3h-1.2H16.2L27.8,130.5z
		 M72.5,130.5v19.3h-29v-19.3H72.5z M114.8,130.5h6v24.2c0,2.7,2.2,4.8,4.8,4.8h38.7c2.7,0,4.8-2.2,4.8-4.8v-24.2h6l8.6,28.8
		l2.7,8.9l0.3,1h-83.6l0.3-1l2.7-8.9L114.8,130.5z M159.5,130.5v19.3h-29v-19.3H159.5z M201.8,130.5h6v24.2c0,2.7,2.2,4.8,4.8,4.8
		h38.7c2.7,0,4.8-2.2,4.8-4.8v-24.2h6l11.6,38.7h-75.7H197l-3.4-11.3L201.8,130.5z M246.5,130.5v19.3h-29v-19.3H246.5z M203,178.9
		h77.3v9.7H203V178.9z M96.7,188.5v-9.7h96.7v9.7H96.7z M9.7,188.5v-9.7H87v9.7H9.7z M285.2,169.2H284l-13.5-44.9
		c-0.6-2.1-2.5-3.4-4.7-3.4h-14.5h-38.7h-14.5c-2.1,0-4,1.4-4.7,3.4l-5,16.8l-5-16.8c-0.6-2.1-2.5-3.4-4.7-3.4h-14.5h-38.7h-14.5
		c-2.1,0-4,1.4-4.7,3.4l-5,16.8l-5-16.8c-0.6-2.1-2.5-3.4-4.7-3.4H77.3H38.7H24.2c-2.1,0-4,1.4-4.7,3.4L6,169.2H4.8
		c-2.7,0-4.8,2.2-4.8,4.8v19.3c0,2.7,2.2,4.8,4.8,4.8v87c0,2.7,2.2,4.8,4.8,4.8h87h96.7h87c2.7,0,4.8-2.2,4.8-4.8v-87
		c2.7,0,4.8-2.2,4.8-4.8V174C290.1,171.4,287.9,169.2,285.2,169.2z"/>
	<path class="st5" d="M137.4,9.7h51.2v24.2h-9.7c-1.3,0-2.5,0.5-3.4,1.4l-11.1,11.1L163,45c-3.4-3.4-3.4-9.1,0-12.5
		c1.4-1.4,1.8-3.4,1-5.3c-0.7-1.8-2.5-3-4.5-3h-19.3c-1.3,0-2.5,0.5-3.4,1.4l-10.5,10.5c-4.6,4.6-12.1,5.5-17.6,2.2L137.4,9.7z
		 M227.2,33.8h-29V9.7h29V33.8z M98.9,42.9c9.4,9.4,24.8,9.4,34.2,0l9.1-9.1h9.1c-1.7,6.2-0.1,13.1,4.8,17.9l4.8,4.8
		c1,1,2.2,1.4,3.4,1.4s2.5-0.5,3.4-1.4l13.1-13.1h12.5H232c2.7,0,4.8-2.2,4.8-4.8V4.8c0-2.7-2.2-4.8-4.8-4.8h-38.7h-58
		c-1.3,0-2.5,0.5-3.4,1.4L98.1,35.2c-1.9,1.9-1.9,5,0,6.8L98.9,42.9z"/>
	<path class="st5" d="M160.3,248.8c-0.4,0.8-1.6,2.5-4.3,2.5h-21.9c-2.6,0-3.9-1.8-4.3-2.5c-0.4-0.8-1.2-2.8,0.2-5l10.9-16.4
		c1.8-2.7,6.2-2.7,8,0l10.9,16.4C161.5,246.1,160.6,248.1,160.3,248.8z M157.1,222.1c-2.7-4-7.2-6.5-12.1-6.5
		c-4.9,0-9.4,2.4-12.1,6.5L122,238.5c-3,4.5-3.3,10.2-0.7,14.9c2.5,4.7,7.4,7.7,12.8,7.7H156c5.4,0,10.3-3,12.8-7.7
		c2.5-4.7,2.2-10.5-0.7-14.9L157.1,222.1z"/>
	<path class="st5" d="M236.9,222.4c6.3,0,11.6,4,13.6,9.7h-8.8v9.7h8.7c-1.1,3.2-3.3,6-6.3,7.7c-1.5,0.8-2.4,2.5-2.4,4.2v7.5H232
		v-7.4c0-1.8-0.9-3.3-2.4-4.2c-3-1.8-5.1-4.5-6.3-7.7h8.7v-9.7h-8.8C225.3,226.4,230.6,222.4,236.9,222.4z M216.1,264.5l6.2-6.2v7.6
		c0,2.7,2.2,4.8,4.8,4.8h19.3c2.7,0,4.8-2.2,4.8-4.8v-7.7l6.2,6.2l6.8-6.8l-7.4-7.4c2.6-3.9,4-8.5,4-13.3c0-4.9-1.5-9.5-4-13.3
		l7.4-7.4l-6.8-6.8l-7.4,7.4c-3.8-2.5-8.4-4-13.3-4c-4.9,0-9.5,1.5-13.3,4l-7.4-7.4l-6.8,6.8l7.4,7.4c-2.5,3.8-4,8.4-4,13.3
		c0,4.8,1.5,9.4,4,13.3l-7.4,7.4L216.1,264.5z"/>
	<polygon class="st5" points="67.7,212.7 58,212.7 58,225.2 53.2,230 48.3,225.2 48.3,212.7 38.7,212.7 38.7,222.4 29,222.4 29,232 
		41.5,232 48.3,238.9 48.3,244.5 40.1,252.8 47,259.7 53.2,253.4 59.4,259.7 66.3,252.8 58,244.5 58,238.9 64.8,232 77.3,232 
		77.3,222.4 67.7,222.4 	"/>
	<path class="st5" d="M149.9,104.1V91.8h-9.7v12.2L128,99.2L145,72l17,27.2L149.9,104.1z M140.9,60.3L116.7,99c-0.8,1.2-1,2.7-0.5,4
		c0.4,1.4,1.5,2.5,2.8,3l24.2,9.7c0.6,0.2,1.2,0.4,1.8,0.4c0.6,0,1.2-0.1,1.8-0.4L171,106c1.3-0.5,2.4-1.6,2.8-3
		c0.4-1.4,0.2-2.8-0.5-4l-24.2-38.7C147.4,57.5,142.7,57.5,140.9,60.3z"/>
</g>
</svg>
