<?xml version="1.0" encoding="utf-8"?>
<!-- Generator: Adobe Illustrator 22.1.0, SVG Export Plug-In . SVG Version: 6.00 Build 0)  -->
<svg version="1.1" id="Capa_1" xmlns="http://www.w3.org/2000/svg" xmlns:xlink="http://www.w3.org/1999/xlink" x="0px" y="0px"
	 viewBox="0 0 52 67" style="enable-background:new 0 0 52 67;" xml:space="preserve">
<style type="text/css">
	.st0{fill:#94CC5A;}
	.st1{fill:#FFD529;}
	.st2{fill:none;stroke:#95CD58;stroke-width:5;}
	.st3{fill:#95CD58;}
	.st4{fill:#FFCE00;}
	.st5{fill:#95C35B;}
</style>
<g>
	<g>
		<g>
			<path class="st1" d="M21,44.3c-11.6,0-21-9.4-21-21s9.4-21,21-21s21,9.4,21,21S32.6,44.3,21,44.3z M21,5.3c-9.9,0-18,8.1-18,18
				s8.1,18,18,18s18-8.1,18-18S31,5.3,21,5.3z"/>
		</g>
	</g>
	<g>
		<g>
			<path class="st1" d="M21,54.3c-7.6,0-14.8-2.8-20.5-7.7l2-2.3c5.1,4.5,11.7,7,18.5,7c15.5,0,28-12.6,28-28c0-8-3.5-15.7-9.5-21
				l2-2.3C48.2,5.9,52,14.4,52,23.3C52,40.4,38.1,54.3,21,54.3z"/>
		</g>
	</g>
	<g>
		<rect x="19.2" y="52.8" class="st1" width="3" height="12.7"/>
	</g>
	<g>
		<rect x="9.2" y="64" class="st1" width="23" height="3"/>
	</g>
</g>
</svg>
